<svg id="edit-24px_1_" data-name="edit-24px (1)" xmlns="http://www.w3.org/2000/svg" width="28.312" height="28.312" viewBox="0 0 28.312 28.312">
  <path id="Path_1174" data-name="Path 1174" d="M0,0H28.312V28.312H0Z" fill="none"/>
  <path id="Path_1175" data-name="Path 1175" d="M16.047,10.1l1.085,1.085L6.445,21.875H5.359V20.789L16.047,10.1M20.294,3a1.181,1.181,0,0,0-.826.342L17.309,5.5l4.424,4.424,2.159-2.159a1.175,1.175,0,0,0,0-1.663l-2.76-2.76A1.158,1.158,0,0,0,20.294,3ZM16.047,6.763,3,19.81v4.424H7.424L20.471,11.187,16.047,6.763Z" transform="translate(0.539 0.539)" fill="#ffffff"/>
</svg>
