<svg xmlns="http://www.w3.org/2000/svg" width="8.752" height="5.749" viewBox="0 0 8.752 5.749">
  <path id="Path_16" data-name="Path 16" d="M415.361,191.669H407.9a.644.644,0,0,0-.644.644v4.462a.644.644,0,0,0,.644.643h7.465a.643.643,0,0,0,.644-.643v-4.462A.644.644,0,0,0,415.361,191.669Zm.125.744-3.776,2.1a.148.148,0,0,1-.072.019h-.019a.148.148,0,0,1-.072-.019l-3.776-2.1a.149.149,0,1,1,.144-.26l3.713,2.063,3.713-2.063a.149.149,0,1,1,.144.26Z" transform="translate(-407.252 -191.669)" fill="#3e4357"/>
</svg>
