<svg xmlns="http://www.w3.org/2000/svg" width="473.34" height="362.195" viewBox="0 0 473.34 362.195">
  <g id="No_data-amico" data-name="No data-amico" transform="translate(-13.44 -91.385)">
    <g id="freepik--Floor--inject-2">
      <ellipse id="freepik--floor--inject-2-2" data-name="freepik--floor--inject-2" cx="236.67" cy="136.64" rx="236.67" ry="136.64" transform="translate(13.44 180.3)" fill="#f5f5f5"/>
    </g>
    <g id="freepik--Shadows--inject-2">
      <path id="freepik--shadow--inject-2" d="M129.09,343.48l119.83,69.19a9.49,9.49,0,0,0,8.56,0l156.35-90c2.36-1.36,2.36-3.56,0-4.92L293.44,248.42a9.49,9.49,0,0,0-8.56,0L129.09,338.54C126.73,339.91,126.73,342.12,129.09,343.48Z" fill="#e6e6e6"/>
      <path id="freepik--shadow--inject-2-2" data-name="freepik--shadow--inject-2" d="M103.61,326.57,43.21,291.7c-2.39-1.38-2.39-3.63,0-5,15-8.73,64.11-37.21,64.74-37.36s49.86,28.63,64.9,37.43c2.38,1.4,2.37,3.64,0,5L112.3,326.56a9.57,9.57,0,0,1-8.69.01Z" fill="#e6e6e6"/>
      <path id="freepik--shadow--inject-2-3" data-name="freepik--shadow--inject-2" d="M311.3,219.16c13.35-7.7,35-7.7,48.33,0,11.31,6.53,13,16.5,5.16,24.08a5.741,5.741,0,0,1,1.27.52l42.16,24.34c1.79,1,1.79,2.71,0,3.74l-2.64,1.52a6.62,6.62,0,0,1-6.37-.18L360,247.49a2.371,2.371,0,0,1-.45-.36c-13.36,7.63-34.9,7.61-48.2-.07S298,226.87,311.3,219.16Z" fill="#e6e6e6"/>
    </g>
    <g id="freepik--magnifying-glass--inject-2">
      <g id="freepik--magnifying-glass--inject-2-2" data-name="freepik--magnifying-glass--inject-2">
        <path id="Path_8529" data-name="Path 8529" d="M305.55,224.18v8.3c0,4.5,3,9,8.93,12.45,11.91,6.87,31.22,6.87,43.13,0,5.95-3.44,8.93-8,8.93-12.45v-8.3h0c0-4.51-3-9-8.93-12.45-11.91-6.88-31.22-6.88-43.13,0C308.48,215.16,305.55,219.67,305.55,224.18Zm58,0c0,3.6-2.65,7.12-7.45,9.89-5.32,3.07-12.46,4.76-20.09,4.76s-14.78-1.69-20.09-4.76c-4.81-2.77-7.46-6.29-7.46-9.89s2.65-7.12,7.46-9.9c5.31-3.07,12.45-4.76,20.09-4.76s14.77,1.69,20.09,4.76c4.84,2.78,7.49,6.29,7.49,9.9Z" fill="#79aa5f"/>
        <path id="Path_8530" data-name="Path 8530" d="M337,241.77v8.29c-8.13.15-16.35-1.55-22.56-5.13-6-3.44-8.93-8-8.93-12.45v-8.3a8.05,8.05,0,0,1,0-.85c-.39,4.78,2.57,9.64,8.9,13.3S328.91,241.92,337,241.77Z" opacity="0.05"/>
        <path id="Path_8531" data-name="Path 8531" d="M357.61,211.73c-11.91-6.88-31.22-6.88-43.13,0s-11.91,18,0,24.9,31.22,6.87,43.13,0S369.52,218.6,357.61,211.73Zm-1.47,22.34c-5.32,3.07-12.46,4.76-20.09,4.76s-14.77-1.69-20.09-4.76c-4.81-2.77-7.46-6.29-7.46-9.89s2.65-7.12,7.46-9.9c5.32-3.07,12.45-4.76,20.09-4.76s14.77,1.69,20.09,4.76c4.81,2.78,7.45,6.29,7.45,9.9s-2.59,7.12-7.45,9.89Z" fill="#fff" opacity="0.6"/>
        <path id="Path_8532" data-name="Path 8532" d="M363.6,224.18a8.16,8.16,0,0,1-1.2,4.15,16.47,16.47,0,0,0-6.27-5.75c-5.31-3.07-12.45-4.76-20.09-4.76s-14.76,1.69-20.08,4.76a16.74,16.74,0,0,0-6.28,5.75,8.33,8.33,0,0,1-1.18-4.15c0-3.61,2.65-7.12,7.46-9.9,5.32-3.07,12.45-4.76,20.08-4.76s14.78,1.69,20.09,4.76C361,217.06,363.6,220.57,363.6,224.18Z" fill="#79aa5f"/>
        <path id="Path_8533" data-name="Path 8533" d="M356.14,218c-5.32-3.07-12.46-4.76-20.09-4.76S321.28,215,316,218c-4,2.29-6.46,5.08-7.21,8,.75,2.93,3.24,5.72,7.21,8,5.32,3.07,12.45,4.76,20.09,4.76s14.77-1.69,20.09-4.76c4-2.29,6.46-5.08,7.21-8C362.6,223.12,360.11,220.33,356.14,218Z" fill="#fff" opacity="0.5"/>
        <path id="Path_8534" data-name="Path 8534" d="M356.7,241.91a4.77,4.77,0,0,1,2.12-3.71,1.51,1.51,0,0,1,1.51-.16h0l10.26,5.85h0a1.53,1.53,0,0,1,.63,1.38,4.75,4.75,0,0,1-2.13,3.71,1.51,1.51,0,0,1-1.51.15h0l-10.26-5.86h0a1.51,1.51,0,0,1-.62-1.36Z" fill="#37474f"/>
        <path id="Path_8535" data-name="Path 8535" d="M357.34,243.29a1.51,1.51,0,0,1-.64-1.38,4.13,4.13,0,0,1,.37-1.6l13.23,7.57a4.069,4.069,0,0,1-1.19,1.12,1.51,1.51,0,0,1-1.51.15l-10.26-5.86Z" fill="#263238"/>
        <path id="Path_8536" data-name="Path 8536" d="M368.31,246h0l-.22.35Z"/>
        <path id="Path_8537" data-name="Path 8537" d="M403.69,266.47,368.32,246a5.37,5.37,0,0,1,1.82-1.9,2,2,0,0,1,1.93-.22h0l34,18.18Z" fill="#79aa5f"/>
        <path id="Path_8538" data-name="Path 8538" d="M403.69,266.47,368.32,246a5.37,5.37,0,0,1,1.82-1.9,2,2,0,0,1,1.93-.22h0l34,18.18Z" fill="#fff" opacity="0.6"/>
        <path id="Path_8539" data-name="Path 8539" d="M403.69,266.47l-2.61,4.62-32.87-20.32a2,2,0,0,1-.83-1.8,5.169,5.169,0,0,1,.27-1.56,1.149,1.149,0,0,1,.11-.29c.11-.25.22-.49.34-.73l.21-.35Z" fill="#79aa5f"/>
        <path id="Path_8540" data-name="Path 8540" d="M403.69,266.47l-2.61,4.62-32.87-20.32a2,2,0,0,1-.83-1.8,5.169,5.169,0,0,1,.27-1.56,1.149,1.149,0,0,1,.11-.29c.11-.25.22-.49.34-.73l.21-.35Z" opacity="0.05"/>
        <path id="Path_8541" data-name="Path 8541" d="M403.64,270.83a8.06,8.06,0,0,0,3.62-6.34c0-2.32-1.64-3.26-3.65-2.09a8.06,8.06,0,0,0-3.62,6.33C400,271.06,401.63,272,403.64,270.83Z" fill="#79aa5f"/>
        <g id="Group_35638" data-name="Group 35638" opacity="0.3">
          <path id="Path_8542" data-name="Path 8542" d="M403.64,270.83a8.06,8.06,0,0,0,3.62-6.34c0-2.32-1.64-3.26-3.65-2.09a8.06,8.06,0,0,0-3.62,6.33C400,271.06,401.63,272,403.64,270.83Z"/>
        </g>
      </g>
    </g>
    <g id="freepik--Lines--inject-2">
      <g id="freepik--lines--inject-2-2" data-name="freepik--lines--inject-2">
        <path id="Path_8543" data-name="Path 8543" d="M172.93,385.59a5.81,5.81,0,0,1-2.85-.69L77.79,331.61a2.07,2.07,0,0,1,0-3.86l21.76-12.57.5.87L78.29,328.61a1.37,1.37,0,0,0-.83,1.07,1.4,1.4,0,0,0,.83,1.07L170.58,384a5.25,5.25,0,0,0,4.7,0L193,373.8l.5.87L175.78,384.9a5.84,5.84,0,0,1-2.85.69Z" fill="#79aa5f"/>
        <path id="Path_8544" data-name="Path 8544" d="M172.93,395a5.81,5.81,0,0,1-2.85-.69L61.54,331.61a2.07,2.07,0,0,1,0-3.86l29.9-17.27.5.87L62,328.61a1.1,1.1,0,0,0,0,2.14l108.54,62.66a5.25,5.25,0,0,0,4.7,0l25.83-14.91.5.86-25.83,14.92a5.839,5.839,0,0,1-2.81.72Z" fill="#79aa5f"/>
        <path id="Path_8545" data-name="Path 8545" d="M172.93,404.35a5.81,5.81,0,0,1-2.85-.69L45.29,331.61A2.29,2.29,0,0,1,44,329.68a2.32,2.32,0,0,1,1.32-1.94l38-21.95.5.87-38,21.95a1.1,1.1,0,0,0,0,2.13l124.79,72.05a5.25,5.25,0,0,0,4.7,0l34-19.6.5.86-34,19.61a5.84,5.84,0,0,1-2.88.69Z" fill="#79aa5f"/>
      </g>
    </g>
    <g id="freepik--Server--inject-2">
      <g id="freepik--server--inject-2-2" data-name="freepik--server--inject-2">
        <path id="Path_8546" data-name="Path 8546" d="M42.94,268.7l65,37.53,64.99-37.53-64.99-37.52Z" fill="#263238"/>
        <path id="Path_8547" data-name="Path 8547" d="M107.93,306.22v17.3a8.84,8.84,0,0,1-4.32-1h0L75.44,306.23,45.54,289a5.73,5.73,0,0,1-2.6-4.5V268.7l63.2,36.49Z" fill="#455a64"/>
        <path id="Path_8548" data-name="Path 8548" d="M172.93,268.7v15.76a5.76,5.76,0,0,1-2.6,4.5l-25.84,14.92-32.23,18.61a8.86,8.86,0,0,1-4.33,1v-17.3l2-1.16Z" fill="#37474f"/>
        <path id="Path_8549" data-name="Path 8549" d="M47,276.24v2.12a1,1,0,0,0,.43.75l.49.28a.267.267,0,0,0,.43-.25V277a1,1,0,0,0-.43-.75l-.49-.28A.281.281,0,0,0,47,276.24Z" fill="#79aa5f"/>
        <path id="Path_8550" data-name="Path 8550" d="M49.19,277.5v2.12a.94.94,0,0,0,.44.75l.48.28a.272.272,0,0,0,.44-.25v-2.12a1,1,0,0,0-.44-.75l-.48-.28C49.39,277.11,49.19,277.22,49.19,277.5Z" fill="#79aa5f"/>
        <path id="Path_8551" data-name="Path 8551" d="M51.38,278.76v2.13a1,1,0,0,0,.43.75l.49.28a.274.274,0,0,0,.44-.25v-2.13a1,1,0,0,0-.44-.75l-.49-.28C51.58,278.37,51.38,278.48,51.38,278.76Z" fill="#79aa5f"/>
        <path id="Path_8552" data-name="Path 8552" d="M53.57,280v2.13a1,1,0,0,0,.43.75l.49.28a.266.266,0,0,0,.43-.25V280.8a1,1,0,0,0-.43-.75l-.49-.28C53.76,279.63,53.57,279.75,53.57,280Z" fill="#79aa5f"/>
        <path id="Path_8553" data-name="Path 8553" d="M55.76,281.28v2.13a1,1,0,0,0,.43.75l.49.28a.266.266,0,0,0,.43-.25v-2.13a1,1,0,0,0-.43-.75l-.49-.28A.267.267,0,0,0,55.76,281.28Z" fill="#263238"/>
        <path id="Path_8554" data-name="Path 8554" d="M58,282.54v2.13a1,1,0,0,0,.43.75l.49.28a.266.266,0,0,0,.43-.25v-2.12a.93.93,0,0,0-.43-.75l-.49-.29C58.14,282.16,58,282.27,58,282.54Z" fill="#79aa5f"/>
        <path id="Path_8555" data-name="Path 8555" d="M60.14,283.81v2.12a1,1,0,0,0,.43.75l.49.28a.267.267,0,0,0,.43-.25v-2.12a1,1,0,0,0-.43-.75l-.49-.28C60.33,283.42,60.14,283.53,60.14,283.81Z" fill="#263238"/>
        <path id="Path_8556" data-name="Path 8556" d="M62.32,285.07v2.12a1,1,0,0,0,.44.75l.48.28a.272.272,0,0,0,.44-.25v-2.12a1,1,0,0,0-.44-.75l-.48-.28C62.52,284.68,62.32,284.79,62.32,285.07Z" fill="#263238"/>
        <path id="Path_8557" data-name="Path 8557" d="M64.51,286.33v2.12a1,1,0,0,0,.43.75l.49.29a.274.274,0,0,0,.44-.25v-2.13a1,1,0,0,0-.44-.75l-.49-.28C64.71,285.94,64.51,286.05,64.51,286.33Z" fill="#263238"/>
        <path id="Path_8558" data-name="Path 8558" d="M66.7,287.59v2.13a1,1,0,0,0,.43.75l.49.28a.266.266,0,0,0,.43-.25v-2.13a1,1,0,0,0-.43-.75l-.49-.28C66.89,287.2,66.7,287.31,66.7,287.59Z" fill="#79aa5f"/>
        <path id="Path_8559" data-name="Path 8559" d="M68.89,288.85V291a1,1,0,0,0,.43.75l.49.28a.266.266,0,0,0,.43-.25v-2.13a1,1,0,0,0-.43-.75l-.49-.28C69.08,288.46,68.89,288.58,68.89,288.85Z" fill="#79aa5f"/>
        <path id="Path_8560" data-name="Path 8560" d="M71.08,290.11v2.13a1,1,0,0,0,.43.75l.49.28a.266.266,0,0,0,.43-.25V290.9a.93.93,0,0,0-.43-.75l-.49-.29C71.27,289.73,71.08,289.84,71.08,290.11Z" fill="#263238"/>
        <path id="Path_8561" data-name="Path 8561" d="M73.27,291.38v2.12a1,1,0,0,0,.43.75l.49.28a.267.267,0,0,0,.43-.25v-2.12a1,1,0,0,0-.43-.75l-.49-.28C73.46,291,73.27,291.1,73.27,291.38Z" fill="#263238"/>
        <path id="Path_8562" data-name="Path 8562" d="M75.45,292.64v2.12a1,1,0,0,0,.44.75l.48.28a.272.272,0,0,0,.44-.25v-2.12a1,1,0,0,0-.44-.75l-.48-.28C75.65,292.25,75.45,292.36,75.45,292.64Z" fill="#79aa5f"/>
        <path id="Path_8563" data-name="Path 8563" d="M77.64,293.9V296a.94.94,0,0,0,.44.75l.48.28a.272.272,0,0,0,.44-.25v-2.12a1,1,0,0,0-.44-.75l-.48-.28A.278.278,0,0,0,77.64,293.9Z" fill="#79aa5f"/>
        <path id="Path_8564" data-name="Path 8564" d="M79.83,295.16v2.13a1,1,0,0,0,.43.75l.49.28a.268.268,0,0,0,.43-.25v-2.13a1,1,0,0,0-.43-.75l-.49-.28C80,294.77,79.83,294.88,79.83,295.16Z" fill="#79aa5f"/>
        <path id="Path_8565" data-name="Path 8565" d="M82,296.42v2.13a1,1,0,0,0,.43.75l.49.28a.266.266,0,0,0,.43-.25V297.2a1,1,0,0,0-.43-.75l-.49-.28C82.21,296,82,296.15,82,296.42Z" fill="#79aa5f"/>
        <path id="Path_8566" data-name="Path 8566" d="M47,282.54v2.13a1,1,0,0,0,.43.75l.49.28a.267.267,0,0,0,.43-.25v-2.12a1,1,0,0,0-.43-.75l-.49-.29A.265.265,0,0,0,47,282.54Z" fill="#79aa5f"/>
        <path id="Path_8567" data-name="Path 8567" d="M49.19,283.81v2.12a1,1,0,0,0,.44.75l.48.28a.272.272,0,0,0,.44-.25v-2.12a1,1,0,0,0-.44-.75l-.48-.28C49.39,283.42,49.19,283.53,49.19,283.81Z" fill="#263238"/>
        <path id="Path_8568" data-name="Path 8568" d="M51.38,285.07v2.12a1,1,0,0,0,.43.75l.49.28a.272.272,0,0,0,.44-.25v-2.12a1,1,0,0,0-.44-.75l-.49-.28C51.58,284.68,51.38,284.79,51.38,285.07Z" fill="#79aa5f"/>
        <path id="Path_8569" data-name="Path 8569" d="M53.57,286.33v2.12a.93.93,0,0,0,.43.75l.49.29a.268.268,0,0,0,.43-.25v-2.13a1,1,0,0,0-.43-.75l-.49-.28C53.76,285.94,53.57,286.05,53.57,286.33Z" fill="#263238"/>
        <path id="Path_8570" data-name="Path 8570" d="M55.76,287.59v2.13a1,1,0,0,0,.43.75l.49.28a.266.266,0,0,0,.43-.25v-2.13a1,1,0,0,0-.43-.75l-.49-.28C56,287.2,55.76,287.31,55.76,287.59Z" fill="#263238"/>
        <path id="Path_8571" data-name="Path 8571" d="M58,288.85V291a1,1,0,0,0,.43.75l.49.28a.266.266,0,0,0,.43-.25v-2.13a1,1,0,0,0-.43-.75l-.49-.28C58.14,288.46,58,288.58,58,288.85Z" fill="#79aa5f"/>
        <path id="Path_8572" data-name="Path 8572" d="M60.14,290.11v2.13a1,1,0,0,0,.43.75l.49.28a.267.267,0,0,0,.43-.25V290.9a1,1,0,0,0-.43-.75l-.49-.29C60.33,289.73,60.14,289.84,60.14,290.11Z" fill="#79aa5f"/>
        <path id="Path_8573" data-name="Path 8573" d="M62.32,291.38v2.12a1,1,0,0,0,.44.75l.48.28a.272.272,0,0,0,.44-.25v-2.12a.94.94,0,0,0-.44-.75l-.48-.28C62.52,291,62.32,291.1,62.32,291.38Z" fill="#79aa5f"/>
        <path id="Path_8574" data-name="Path 8574" d="M64.51,292.64v2.12a1,1,0,0,0,.43.75l.49.28a.272.272,0,0,0,.44-.25v-2.12a1,1,0,0,0-.44-.75l-.49-.28C64.71,292.25,64.51,292.36,64.51,292.64Z" fill="#79aa5f"/>
        <path id="Path_8575" data-name="Path 8575" d="M66.7,293.9V296a.93.93,0,0,0,.43.75l.49.28a.266.266,0,0,0,.43-.25v-2.12a1,1,0,0,0-.43-.75l-.49-.28C66.89,293.51,66.7,293.62,66.7,293.9Z" fill="#263238"/>
        <path id="Path_8576" data-name="Path 8576" d="M68.89,295.16v2.13a1,1,0,0,0,.43.75l.49.28a.268.268,0,0,0,.43-.25v-2.13a1,1,0,0,0-.43-.75l-.49-.28C69.08,294.77,68.89,294.88,68.89,295.16Z" fill="#263238"/>
        <path id="Path_8577" data-name="Path 8577" d="M71.08,296.42v2.13a1,1,0,0,0,.43.75l.49.28a.266.266,0,0,0,.43-.25V297.2a1,1,0,0,0-.43-.75l-.49-.28C71.27,296,71.08,296.15,71.08,296.42Z" fill="#79aa5f"/>
        <path id="Path_8578" data-name="Path 8578" d="M73.27,297.68v2.13a1,1,0,0,0,.43.75l.49.28a.267.267,0,0,0,.43-.25v-2.13a1,1,0,0,0-.43-.75l-.49-.28C73.46,297.3,73.27,297.41,73.27,297.68Z" fill="#79aa5f"/>
        <path id="Path_8579" data-name="Path 8579" d="M75.45,298.94v2.13a1,1,0,0,0,.44.75l.48.28a.272.272,0,0,0,.44-.25v-2.12a.94.94,0,0,0-.44-.75l-.48-.29C75.65,298.56,75.45,298.67,75.45,298.94Z" fill="#263238"/>
        <path id="Path_8580" data-name="Path 8580" d="M77.64,300.21v2.12a1,1,0,0,0,.44.75l.48.28a.272.272,0,0,0,.44-.25V301a1,1,0,0,0-.44-.75l-.48-.28C77.84,299.82,77.64,299.93,77.64,300.21Z" fill="#263238"/>
        <path id="Path_8581" data-name="Path 8581" d="M79.83,301.47v2.12a1,1,0,0,0,.43.75l.49.28a.266.266,0,0,0,.43-.25v-2.12a1,1,0,0,0-.43-.75l-.49-.28C80,301.08,79.83,301.19,79.83,301.47Z" fill="#263238"/>
        <path id="Path_8582" data-name="Path 8582" d="M82,302.73v2.12a.93.93,0,0,0,.43.75l.49.29a.268.268,0,0,0,.43-.25v-2.13a1,1,0,0,0-.43-.75l-.49-.28C82.21,302.34,82,302.45,82,302.73Z" fill="#263238"/>
        <path id="Path_8583" data-name="Path 8583" d="M89.33,303.62l1-.57h0a1.32,1.32,0,0,1,1.32.14,4.16,4.16,0,0,1,1.88,3.26,1.3,1.3,0,0,1-.55,1.21h0l-.92.53-.17-.27a2.3,2.3,0,0,1-.54-.21,4.16,4.16,0,0,1-1.88-3.26,1.75,1.75,0,0,1,.06-.48Z" fill="#79aa5f"/>
        <path id="Path_8584" data-name="Path 8584" d="M89.33,303.62l1-.57h0a1.32,1.32,0,0,1,1.32.14,4.16,4.16,0,0,1,1.88,3.26,1.3,1.3,0,0,1-.55,1.21h0l-.92.53-.17-.27a2.3,2.3,0,0,1-.54-.21,4.16,4.16,0,0,1-1.88-3.26,1.75,1.75,0,0,1,.06-.48Z" opacity="0.2"/>
        <path id="Path_8585" data-name="Path 8585" d="M90.7,303.73A4.14,4.14,0,0,1,92.58,307c0,1.2-.84,1.68-1.88,1.08a4.16,4.16,0,0,1-1.88-3.26C88.82,303.61,89.66,303.13,90.7,303.73Z" fill="#79aa5f"/>
        <path id="Path_8586" data-name="Path 8586" d="M97.5,308.33l1-.57h0a1.29,1.29,0,0,1,1.32.13,4.16,4.16,0,0,1,1.88,3.26,1.33,1.33,0,0,1-.55,1.22h0l-.92.53-.17-.28a1.93,1.93,0,0,1-.54-.21,4.16,4.16,0,0,1-1.88-3.26,1.8,1.8,0,0,1,.06-.48Z" fill="#79aa5f"/>
        <path id="Path_8587" data-name="Path 8587" d="M97.5,308.33l1-.57h0a1.29,1.29,0,0,1,1.32.13,4.16,4.16,0,0,1,1.88,3.26,1.33,1.33,0,0,1-.55,1.22h0l-.92.53-.17-.28a1.93,1.93,0,0,1-.54-.21,4.16,4.16,0,0,1-1.88-3.26,1.8,1.8,0,0,1,.06-.48Z" opacity="0.2"/>
        <path id="Path_8588" data-name="Path 8588" d="M98.87,308.44a4.16,4.16,0,0,1,1.88,3.26c0,1.2-.84,1.69-1.88,1.09A4.17,4.17,0,0,1,97,309.53C97,308.33,97.83,307.84,98.87,308.44Z" fill="#79aa5f"/>
        <path id="Path_8589" data-name="Path 8589" d="M42.94,240.56l65,37.52,64.99-37.52-64.99-37.52Z" fill="#263238"/>
        <path id="Path_8590" data-name="Path 8590" d="M42.94,259.32l65,37.53V278.08l-65-37.52Z" fill="#455a64"/>
        <path id="Path_8591" data-name="Path 8591" d="M107.94,296.85l64.99-37.53V240.56l-64.99,37.52Z" fill="#37474f"/>
        <path id="Path_8592" data-name="Path 8592" d="M51.07,268.7v-4.69l56.87,32.84v4.69Z" fill="#79aa5f"/>
        <path id="Path_8593" data-name="Path 8593" d="M168.87,261.67v4.69l-60.93,35.18v-4.69Z" fill="#79aa5f"/>
        <path id="Path_8594" data-name="Path 8594" d="M168.87,261.67v4.69l-60.93,35.18v-4.69Z" opacity="0.2"/>
        <path id="Path_8595" data-name="Path 8595" d="M47,248.1v2.12a1,1,0,0,0,.43.75l.49.28a.267.267,0,0,0,.43-.25v-2.12a1,1,0,0,0-.43-.75l-.49-.28C47.2,247.71,47,247.82,47,248.1Z" fill="#263238"/>
        <path id="Path_8596" data-name="Path 8596" d="M49.19,249.36v2.12a1,1,0,0,0,.44.75l.48.28a.272.272,0,0,0,.44-.25v-2.12a1,1,0,0,0-.44-.75l-.48-.28C49.39,249,49.19,249.08,49.19,249.36Z" fill="#79aa5f"/>
        <path id="Path_8597" data-name="Path 8597" d="M51.38,250.62v2.12a1,1,0,0,0,.43.75l.49.28a.272.272,0,0,0,.44-.25V251.4a1,1,0,0,0-.44-.75l-.49-.28C51.58,250.23,51.38,250.34,51.38,250.62Z" fill="#79aa5f"/>
        <path id="Path_8598" data-name="Path 8598" d="M53.57,251.88V254a1,1,0,0,0,.43.75l.49.28a.268.268,0,0,0,.43-.25v-2.13a1,1,0,0,0-.43-.75l-.49-.28C53.76,251.49,53.57,251.6,53.57,251.88Z" fill="#263238"/>
        <path id="Path_8599" data-name="Path 8599" d="M55.76,253.14v2.13a1,1,0,0,0,.43.75l.49.28a.266.266,0,0,0,.43-.25v-2.13a1,1,0,0,0-.43-.75l-.49-.28A.267.267,0,0,0,55.76,253.14Z" fill="#263238"/>
        <path id="Path_8600" data-name="Path 8600" d="M58,254.4v2.13a1,1,0,0,0,.43.75l.49.28a.266.266,0,0,0,.43-.25v-2.13a1,1,0,0,0-.43-.75l-.49-.28C58.14,254,58,254.13,58,254.4Z" fill="#79aa5f"/>
        <path id="Path_8601" data-name="Path 8601" d="M60.14,255.66v2.13a1,1,0,0,0,.43.75l.49.28a.267.267,0,0,0,.43-.25v-2.12a1,1,0,0,0-.43-.75l-.49-.29C60.33,255.28,60.14,255.39,60.14,255.66Z" fill="#79aa5f"/>
        <path id="Path_8602" data-name="Path 8602" d="M62.32,256.93v2.12a1,1,0,0,0,.44.75l.48.28a.272.272,0,0,0,.44-.25v-2.12a1,1,0,0,0-.44-.75l-.48-.28C62.52,256.54,62.32,256.65,62.32,256.93Z" fill="#79aa5f"/>
        <path id="Path_8603" data-name="Path 8603" d="M64.51,258.19v2.12a1,1,0,0,0,.43.75l.49.28a.272.272,0,0,0,.44-.25V259a1,1,0,0,0-.44-.75l-.49-.28C64.71,257.8,64.51,257.91,64.51,258.19Z" fill="#79aa5f"/>
        <path id="Path_8604" data-name="Path 8604" d="M66.7,259.45v2.12a.93.93,0,0,0,.43.75l.49.29a.268.268,0,0,0,.43-.25v-2.13a1,1,0,0,0-.43-.75l-.49-.28C66.89,259.06,66.7,259.17,66.7,259.45Z" fill="#263238"/>
        <path id="Path_8605" data-name="Path 8605" d="M68.89,260.71v2.13a1,1,0,0,0,.43.75l.49.28a.266.266,0,0,0,.43-.25v-2.13a1,1,0,0,0-.43-.75l-.49-.28C69.08,260.32,68.89,260.43,68.89,260.71Z" fill="#263238"/>
        <path id="Path_8606" data-name="Path 8606" d="M71.08,262v2.13a1,1,0,0,0,.43.75l.49.28a.266.266,0,0,0,.43-.25v-2.13A1,1,0,0,0,72,262l-.49-.28C71.27,261.58,71.08,261.7,71.08,262Z" fill="#263238"/>
        <path id="Path_8607" data-name="Path 8607" d="M73.27,263.23v2.13a1,1,0,0,0,.43.75l.49.28a.267.267,0,0,0,.43-.25V264a1,1,0,0,0-.43-.75L73.7,263A.261.261,0,0,0,73.27,263.23Z" fill="#79aa5f"/>
        <path id="Path_8608" data-name="Path 8608" d="M75.45,264.5v2.12a1,1,0,0,0,.44.75l.48.28a.272.272,0,0,0,.44-.25v-2.12a.94.94,0,0,0-.44-.75l-.48-.28C75.65,264.11,75.45,264.22,75.45,264.5Z" fill="#79aa5f"/>
        <path id="Path_8609" data-name="Path 8609" d="M77.64,265.76v2.12a1,1,0,0,0,.44.75l.48.28a.272.272,0,0,0,.44-.25v-2.12a1,1,0,0,0-.44-.75l-.48-.28C77.84,265.37,77.64,265.48,77.64,265.76Z" fill="#79aa5f"/>
        <path id="Path_8610" data-name="Path 8610" d="M79.83,267v2.12a.93.93,0,0,0,.43.75l.49.28a.266.266,0,0,0,.43-.25v-2.1a1,1,0,0,0-.43-.75l-.49-.28C80,266.63,79.83,266.74,79.83,267Z" fill="#263238"/>
        <path id="Path_8611" data-name="Path 8611" d="M82,268.28v2.12a.93.93,0,0,0,.43.75l.49.29a.268.268,0,0,0,.43-.25v-2.13a1,1,0,0,0-.43-.75l-.49-.28C82.21,267.89,82,268,82,268.28Z" fill="#79aa5f"/>
        <path id="Path_8612" data-name="Path 8612" d="M47,254.4v2.13a1,1,0,0,0,.43.75l.49.28a.267.267,0,0,0,.43-.25v-2.13a1,1,0,0,0-.43-.75l-.49-.28C47.2,254,47,254.13,47,254.4Z" fill="#79aa5f"/>
        <path id="Path_8613" data-name="Path 8613" d="M49.19,255.66v2.13a1,1,0,0,0,.44.75l.48.28a.272.272,0,0,0,.44-.25v-2.12a.94.94,0,0,0-.44-.75l-.48-.29C49.39,255.28,49.19,255.39,49.19,255.66Z" fill="#79aa5f"/>
        <path id="Path_8614" data-name="Path 8614" d="M51.38,256.93v2.12a1,1,0,0,0,.43.75l.49.28a.272.272,0,0,0,.44-.25v-2.12a1,1,0,0,0-.44-.75l-.49-.28C51.58,256.54,51.38,256.65,51.38,256.93Z" fill="#79aa5f"/>
        <path id="Path_8615" data-name="Path 8615" d="M53.57,258.19v2.12a1,1,0,0,0,.43.75l.49.28a.266.266,0,0,0,.43-.25V259a1,1,0,0,0-.43-.75l-.49-.28C53.76,257.8,53.57,257.91,53.57,258.19Z" fill="#79aa5f"/>
        <path id="Path_8616" data-name="Path 8616" d="M55.76,259.45v2.12a.93.93,0,0,0,.43.75l.49.29a.268.268,0,0,0,.43-.25v-2.13a1,1,0,0,0-.43-.75l-.49-.28C56,259.06,55.76,259.17,55.76,259.45Z" fill="#263238"/>
        <path id="Path_8617" data-name="Path 8617" d="M58,260.71v2.13a1,1,0,0,0,.43.75l.49.28a.266.266,0,0,0,.43-.25v-2.13a1,1,0,0,0-.43-.75l-.49-.28C58.14,260.32,58,260.43,58,260.71Z" fill="#263238"/>
        <path id="Path_8618" data-name="Path 8618" d="M60.14,262v2.13a1,1,0,0,0,.43.75l.49.28a.267.267,0,0,0,.43-.25v-2.13a1,1,0,0,0-.43-.75l-.49-.28C60.33,261.58,60.14,261.7,60.14,262Z" fill="#79aa5f"/>
        <path id="Path_8619" data-name="Path 8619" d="M62.32,263.23v2.13a1,1,0,0,0,.44.75l.48.28a.272.272,0,0,0,.44-.25V264a.94.94,0,0,0-.44-.75l-.48-.29A.292.292,0,0,0,62.32,263.23Z" fill="#79aa5f"/>
        <path id="Path_8620" data-name="Path 8620" d="M64.51,264.5v2.12a1,1,0,0,0,.43.75l.49.28a.272.272,0,0,0,.44-.25v-2.12a.94.94,0,0,0-.44-.75l-.49-.28C64.71,264.11,64.51,264.22,64.51,264.5Z" fill="#79aa5f"/>
        <path id="Path_8621" data-name="Path 8621" d="M66.7,265.76v2.12a1,1,0,0,0,.43.75l.49.28a.266.266,0,0,0,.43-.25v-2.12a1,1,0,0,0-.43-.75l-.49-.28C66.89,265.37,66.7,265.48,66.7,265.76Z" fill="#79aa5f"/>
        <path id="Path_8622" data-name="Path 8622" d="M68.89,267v2.12a.93.93,0,0,0,.43.75l.49.28a.266.266,0,0,0,.43-.25v-2.1a1,1,0,0,0-.43-.75l-.49-.28C69.08,266.63,68.89,266.74,68.89,267Z" fill="#79aa5f"/>
        <path id="Path_8623" data-name="Path 8623" d="M71.08,268.28v2.12a.93.93,0,0,0,.43.75l.49.29a.268.268,0,0,0,.43-.25v-2.13a1,1,0,0,0-.43-.75l-.49-.28C71.27,267.89,71.08,268,71.08,268.28Z" fill="#263238"/>
        <path id="Path_8624" data-name="Path 8624" d="M73.27,269.54v2.13a1,1,0,0,0,.43.75l.49.28a.267.267,0,0,0,.43-.25v-2.13a1,1,0,0,0-.43-.75l-.49-.28C73.46,269.15,73.27,269.27,73.27,269.54Z" fill="#79aa5f"/>
        <path id="Path_8625" data-name="Path 8625" d="M75.45,270.8v2.13a1,1,0,0,0,.44.75l.48.28a.272.272,0,0,0,.44-.25v-2.13a1,1,0,0,0-.44-.75l-.48-.28a.27.27,0,0,0-.44.25Z" fill="#79aa5f"/>
        <path id="Path_8626" data-name="Path 8626" d="M77.64,272.06v2.13a1,1,0,0,0,.44.75l.48.28a.272.272,0,0,0,.44-.25v-2.12a.94.94,0,0,0-.44-.75l-.48-.29C77.84,271.68,77.64,271.79,77.64,272.06Z" fill="#79aa5f"/>
        <path id="Path_8627" data-name="Path 8627" d="M79.83,273.33v2.12a1,1,0,0,0,.43.75l.49.28a.266.266,0,0,0,.43-.25v-2.12a1,1,0,0,0-.43-.75l-.49-.28C80,272.94,79.83,273.05,79.83,273.33Z" fill="#79aa5f"/>
        <path id="Path_8628" data-name="Path 8628" d="M82,274.59v2.12a1,1,0,0,0,.43.75l.49.28a.266.266,0,0,0,.43-.25v-2.12a1,1,0,0,0-.43-.75l-.49-.28C82.21,274.2,82,274.31,82,274.59Z" fill="#79aa5f"/>
        <path id="Path_8629" data-name="Path 8629" d="M89.33,275.48l1-.58h0a1.32,1.32,0,0,1,1.32.14,4.14,4.14,0,0,1,1.88,3.25,1.33,1.33,0,0,1-.55,1.22h0l-.92.53-.17-.28a1.931,1.931,0,0,1-.54-.21,4.16,4.16,0,0,1-1.88-3.26,1.86,1.86,0,0,1,.06-.48Z" fill="#79aa5f"/>
        <path id="Path_8630" data-name="Path 8630" d="M89.33,275.48l1-.58h0a1.32,1.32,0,0,1,1.32.14,4.14,4.14,0,0,1,1.88,3.25,1.33,1.33,0,0,1-.55,1.22h0l-.92.53-.17-.28a1.931,1.931,0,0,1-.54-.21,4.16,4.16,0,0,1-1.88-3.26,1.86,1.86,0,0,1,.06-.48Z" opacity="0.2"/>
        <path id="Path_8631" data-name="Path 8631" d="M90.7,275.58a4.16,4.16,0,0,1,1.88,3.26c0,1.2-.84,1.69-1.88,1.09a4.16,4.16,0,0,1-1.88-3.26C88.82,275.47,89.66,275,90.7,275.58Z" fill="#79aa5f"/>
        <path id="Path_8632" data-name="Path 8632" d="M97.5,280.19l1-.57h0a1.29,1.29,0,0,1,1.32.13A4.16,4.16,0,0,1,101.7,283a1.33,1.33,0,0,1-.55,1.22h0l-.92.53-.17-.28a1.93,1.93,0,0,1-.54-.21A4.16,4.16,0,0,1,97.64,281a1.75,1.75,0,0,1,.06-.48Z" fill="#79aa5f"/>
        <path id="Path_8633" data-name="Path 8633" d="M97.5,280.19l1-.57h0a1.29,1.29,0,0,1,1.32.13A4.16,4.16,0,0,1,101.7,283a1.33,1.33,0,0,1-.55,1.22h0l-.92.53-.17-.28a1.93,1.93,0,0,1-.54-.21A4.16,4.16,0,0,1,97.64,281a1.75,1.75,0,0,1,.06-.48Z" opacity="0.2"/>
        <path id="Path_8634" data-name="Path 8634" d="M98.87,280.3a4.16,4.16,0,0,1,1.88,3.26c0,1.2-.84,1.68-1.88,1.08A4.15,4.15,0,0,1,97,281.39C97,280.18,97.83,279.7,98.87,280.3Z" fill="#79aa5f"/>
        <path id="Path_8635" data-name="Path 8635" d="M42.94,212.42l65,37.52,64.99-37.52-64.99-37.53Z" fill="#263238"/>
        <path id="Path_8636" data-name="Path 8636" d="M42.94,231.18l65,37.52V249.94l-65-37.52Z" fill="#455a64"/>
        <path id="Path_8637" data-name="Path 8637" d="M107.94,268.7l64.99-37.52V212.42l-64.99,37.52Z" fill="#37474f"/>
        <path id="Path_8638" data-name="Path 8638" d="M51.07,240.56v-4.69l56.87,32.83v4.69Z" fill="#79aa5f"/>
        <path id="Path_8639" data-name="Path 8639" d="M168.87,233.52v4.69l-60.93,35.18V268.7Z" fill="#79aa5f"/>
        <path id="Path_8640" data-name="Path 8640" d="M168.87,233.52v4.69l-60.93,35.18V268.7Z" opacity="0.2"/>
        <path id="Path_8641" data-name="Path 8641" d="M47,220v2.13a1,1,0,0,0,.43.75l.49.28a.267.267,0,0,0,.43-.25v-2.13a1,1,0,0,0-.43-.75l-.49-.28C47.2,219.56,47,219.68,47,220Z" fill="#79aa5f"/>
        <path id="Path_8642" data-name="Path 8642" d="M49.19,221.21v2.13a1,1,0,0,0,.44.75l.48.28a.272.272,0,0,0,.44-.25V222a.94.94,0,0,0-.44-.75l-.48-.29C49.39,220.83,49.19,220.94,49.19,221.21Z" fill="#79aa5f"/>
        <path id="Path_8643" data-name="Path 8643" d="M51.38,222.48v2.12a1,1,0,0,0,.43.75l.49.28a.272.272,0,0,0,.44-.25v-2.12a1,1,0,0,0-.44-.75l-.49-.28C51.58,222.09,51.38,222.2,51.38,222.48Z" fill="#79aa5f"/>
        <path id="Path_8644" data-name="Path 8644" d="M53.57,223.74v2.12a1,1,0,0,0,.43.75l.49.28a.266.266,0,0,0,.43-.25v-2.12a1,1,0,0,0-.43-.75l-.49-.28C53.76,223.35,53.57,223.46,53.57,223.74Z" fill="#263238"/>
        <path id="Path_8645" data-name="Path 8645" d="M55.76,225v2.12a.93.93,0,0,0,.43.75l.49.29a.268.268,0,0,0,.43-.25v-2.13a1,1,0,0,0-.43-.75l-.49-.28C56,224.61,55.76,224.72,55.76,225Z" fill="#263238"/>
        <path id="Path_8646" data-name="Path 8646" d="M58,226.26v2.13a1,1,0,0,0,.43.75l.49.28a.268.268,0,0,0,.43-.25V227a1,1,0,0,0-.43-.75l-.49-.28C58.14,225.87,58,226,58,226.26Z" fill="#79aa5f"/>
        <path id="Path_8647" data-name="Path 8647" d="M60.14,227.52v2.13a1,1,0,0,0,.43.75l.49.28a.267.267,0,0,0,.43-.25V228.3a1,1,0,0,0-.43-.75l-.49-.28C60.33,227.13,60.14,227.25,60.14,227.52Z" fill="#79aa5f"/>
        <path id="Path_8648" data-name="Path 8648" d="M62.32,228.78v2.13a1,1,0,0,0,.44.75l.48.28a.272.272,0,0,0,.44-.25v-2.13a1,1,0,0,0-.44-.75l-.48-.28C62.52,228.4,62.32,228.51,62.32,228.78Z" fill="#79aa5f"/>
        <path id="Path_8649" data-name="Path 8649" d="M64.51,230.05v2.12a1,1,0,0,0,.43.75l.49.28a.272.272,0,0,0,.44-.25v-2.12a.94.94,0,0,0-.44-.75l-.49-.28C64.71,229.66,64.51,229.77,64.51,230.05Z" fill="#79aa5f"/>
        <path id="Path_8650" data-name="Path 8650" d="M66.7,231.31v2.12a1,1,0,0,0,.43.75l.49.28a.266.266,0,0,0,.43-.25v-2.12a1,1,0,0,0-.43-.75l-.49-.28C66.89,230.92,66.7,231,66.7,231.31Z" fill="#79aa5f"/>
        <path id="Path_8651" data-name="Path 8651" d="M68.89,232.57v2.12a.93.93,0,0,0,.43.75l.49.28a.266.266,0,0,0,.43-.25v-2.12a1,1,0,0,0-.43-.75l-.49-.28C69.08,232.18,68.89,232.29,68.89,232.57Z" fill="#79aa5f"/>
        <path id="Path_8652" data-name="Path 8652" d="M71.08,233.83V236a.93.93,0,0,0,.43.75L72,237a.268.268,0,0,0,.43-.25v-2.13a1,1,0,0,0-.43-.75l-.49-.28C71.27,233.44,71.08,233.55,71.08,233.83Z" fill="#79aa5f"/>
        <path id="Path_8653" data-name="Path 8653" d="M73.27,235.09v2.13a1,1,0,0,0,.43.75l.49.28a.267.267,0,0,0,.43-.25v-2.13a1,1,0,0,0-.43-.75l-.49-.28C73.46,234.7,73.27,234.81,73.27,235.09Z" fill="#263238"/>
        <path id="Path_8654" data-name="Path 8654" d="M75.45,236.35v2.13a1,1,0,0,0,.44.75l.48.28a.272.272,0,0,0,.44-.25v-2.13a1,1,0,0,0-.44-.75l-.48-.28a.27.27,0,0,0-.44.25Z" fill="#79aa5f"/>
        <path id="Path_8655" data-name="Path 8655" d="M77.64,237.61v2.13a1,1,0,0,0,.44.75l.48.28a.272.272,0,0,0,.44-.25V238.4a.94.94,0,0,0-.44-.75l-.48-.29C77.84,237.23,77.64,237.34,77.64,237.61Z" fill="#79aa5f"/>
        <path id="Path_8656" data-name="Path 8656" d="M79.83,238.88V241a1,1,0,0,0,.43.75l.49.28a.266.266,0,0,0,.43-.25v-2.12a1,1,0,0,0-.43-.75l-.49-.28C80,238.49,79.83,238.6,79.83,238.88Z" fill="#79aa5f"/>
        <path id="Path_8657" data-name="Path 8657" d="M82,240.14v2.12a1,1,0,0,0,.43.75l.49.28a.266.266,0,0,0,.43-.25v-2.12a1,1,0,0,0-.43-.75l-.49-.28C82.21,239.75,82,239.86,82,240.14Z" fill="#79aa5f"/>
        <path id="Path_8658" data-name="Path 8658" d="M47,226.26v2.13a1,1,0,0,0,.43.75l.49.28a.27.27,0,0,0,.43-.25V227a1,1,0,0,0-.43-.75l-.49-.28A.29.29,0,0,0,47,226.26Z" fill="#79aa5f"/>
        <path id="Path_8659" data-name="Path 8659" d="M49.19,227.52v2.13a1,1,0,0,0,.44.75l.48.28a.27.27,0,0,0,.44-.25V228.3a1,1,0,0,0-.44-.75l-.48-.28a.27.27,0,0,0-.44.25Z" fill="#263238"/>
        <path id="Path_8660" data-name="Path 8660" d="M51.38,228.78v2.13a1,1,0,0,0,.43.75l.49.28a.272.272,0,0,0,.44-.25v-2.13a1,1,0,0,0-.44-.75l-.49-.28a.27.27,0,0,0-.43.25Z" fill="#263238"/>
        <path id="Path_8661" data-name="Path 8661" d="M53.57,230.05v2.12a1,1,0,0,0,.43.75l.49.28a.266.266,0,0,0,.43-.25v-2.12a.93.93,0,0,0-.43-.75L54,229.8C53.76,229.66,53.57,229.77,53.57,230.05Z" fill="#79aa5f"/>
        <path id="Path_8662" data-name="Path 8662" d="M55.76,231.31v2.12a1,1,0,0,0,.43.75l.49.28a.266.266,0,0,0,.43-.25v-2.12a1,1,0,0,0-.43-.75l-.49-.28C56,230.92,55.76,231,55.76,231.31Z" fill="#79aa5f"/>
        <path id="Path_8663" data-name="Path 8663" d="M58,232.57v2.12a.93.93,0,0,0,.43.75l.49.28a.266.266,0,0,0,.43-.25v-2.12a1,1,0,0,0-.43-.75l-.49-.28C58.14,232.18,58,232.29,58,232.57Z" fill="#263238"/>
        <path id="Path_8664" data-name="Path 8664" d="M60.14,233.83V236a.93.93,0,0,0,.43.75l.49.29a.27.27,0,0,0,.43-.25v-2.13a1,1,0,0,0-.43-.75l-.49-.28C60.33,233.44,60.14,233.55,60.14,233.83Z" fill="#79aa5f"/>
        <path id="Path_8665" data-name="Path 8665" d="M62.32,235.09v2.13a1,1,0,0,0,.44.75l.48.28a.27.27,0,0,0,.44-.25v-2.13a1,1,0,0,0-.44-.75l-.48-.28C62.52,234.7,62.32,234.81,62.32,235.09Z" fill="#79aa5f"/>
        <path id="Path_8666" data-name="Path 8666" d="M64.51,236.35v2.13a1,1,0,0,0,.43.75l.49.28a.272.272,0,0,0,.44-.25v-2.13a1,1,0,0,0-.44-.75l-.49-.28C64.71,236,64.51,236.08,64.51,236.35Z" fill="#79aa5f"/>
        <path id="Path_8667" data-name="Path 8667" d="M66.7,237.61v2.13a1,1,0,0,0,.43.75l.49.28a.266.266,0,0,0,.43-.25V238.4a.93.93,0,0,0-.43-.75l-.49-.29C66.89,237.23,66.7,237.34,66.7,237.61Z" fill="#79aa5f"/>
        <path id="Path_8668" data-name="Path 8668" d="M68.89,238.88V241a1,1,0,0,0,.43.75l.49.28a.266.266,0,0,0,.43-.25v-2.12a1,1,0,0,0-.43-.75l-.49-.28C69.08,238.49,68.89,238.6,68.89,238.88Z" fill="#263238"/>
        <path id="Path_8669" data-name="Path 8669" d="M71.08,240.14v2.12a1,1,0,0,0,.43.75l.49.28a.266.266,0,0,0,.43-.25v-2.12a1,1,0,0,0-.43-.75l-.49-.28C71.27,239.75,71.08,239.86,71.08,240.14Z" fill="#263238"/>
        <path id="Path_8670" data-name="Path 8670" d="M73.27,241.4v2.12a.93.93,0,0,0,.43.75l.49.29a.27.27,0,0,0,.43-.25v-2.13a1,1,0,0,0-.43-.75l-.49-.28C73.46,241,73.27,241.12,73.27,241.4Z" fill="#79aa5f"/>
        <path id="Path_8671" data-name="Path 8671" d="M75.45,242.66v2.13a1,1,0,0,0,.44.75l.48.28a.274.274,0,0,0,.44-.25v-2.13a1,1,0,0,0-.44-.75l-.48-.28C75.65,242.27,75.45,242.38,75.45,242.66Z" fill="#79aa5f"/>
        <path id="Path_8672" data-name="Path 8672" d="M77.64,243.92v2.13a1,1,0,0,0,.44.75l.48.28a.27.27,0,0,0,.44-.25V244.7a1,1,0,0,0-.44-.75l-.48-.28a.27.27,0,0,0-.44.25Z" fill="#79aa5f"/>
        <path id="Path_8673" data-name="Path 8673" d="M79.83,245.18v2.13a1,1,0,0,0,.43.75l.49.28a.266.266,0,0,0,.43-.25V246a1,1,0,0,0-.43-.75l-.49-.28C80,244.8,79.83,244.91,79.83,245.18Z" fill="#263238"/>
        <path id="Path_8674" data-name="Path 8674" d="M82,246.44v2.13a1,1,0,0,0,.43.75l.49.28a.266.266,0,0,0,.43-.25v-2.12a.93.93,0,0,0-.43-.75l-.49-.29A.266.266,0,0,0,82,246.44Z" fill="#79aa5f"/>
        <path id="Path_8675" data-name="Path 8675" d="M89.33,247.33l1-.57h0a1.32,1.32,0,0,1,1.32.13,4.16,4.16,0,0,1,1.88,3.26,1.33,1.33,0,0,1-.55,1.22h0l-.92.53-.17-.28a1.932,1.932,0,0,1-.54-.21,4.16,4.16,0,0,1-1.88-3.26,1.8,1.8,0,0,1,.06-.48Z" fill="#79aa5f"/>
        <path id="Path_8676" data-name="Path 8676" d="M89.33,247.33l1-.57h0a1.32,1.32,0,0,1,1.32.13,4.16,4.16,0,0,1,1.88,3.26,1.33,1.33,0,0,1-.55,1.22h0l-.92.53-.17-.28a1.932,1.932,0,0,1-.54-.21,4.16,4.16,0,0,1-1.88-3.26,1.8,1.8,0,0,1,.06-.48Z" opacity="0.2"/>
        <path id="Path_8677" data-name="Path 8677" d="M90.7,247.44a4.16,4.16,0,0,1,1.88,3.26c0,1.2-.84,1.69-1.88,1.09a4.16,4.16,0,0,1-1.88-3.26C88.82,247.33,89.66,246.84,90.7,247.44Z" fill="#79aa5f"/>
        <path id="Path_8678" data-name="Path 8678" d="M97.5,252.05l1-.57h0a1.32,1.32,0,0,1,1.32.14,4.16,4.16,0,0,1,1.88,3.26,1.3,1.3,0,0,1-.55,1.21h0l-.92.52-.17-.27a2.3,2.3,0,0,1-.54-.21,4.16,4.16,0,0,1-1.88-3.26,1.75,1.75,0,0,1,.06-.48Z" fill="#79aa5f"/>
        <path id="Path_8679" data-name="Path 8679" d="M97.5,252.05l1-.57h0a1.32,1.32,0,0,1,1.32.14,4.16,4.16,0,0,1,1.88,3.26,1.3,1.3,0,0,1-.55,1.21h0l-.92.52-.17-.27a2.3,2.3,0,0,1-.54-.21,4.16,4.16,0,0,1-1.88-3.26,1.75,1.75,0,0,1,.06-.48Z" opacity="0.2"/>
        <path id="Path_8680" data-name="Path 8680" d="M98.87,252.16a4.16,4.16,0,0,1,1.88,3.26c0,1.2-.84,1.68-1.88,1.08A4.17,4.17,0,0,1,97,253.24C97,252,97.83,251.56,98.87,252.16Z" fill="#79aa5f"/>
        <path id="Path_8681" data-name="Path 8681" d="M42.94,184.27l65,37.53,64.99-37.53-64.99-37.52Z" fill="#263238"/>
        <path id="Path_8682" data-name="Path 8682" d="M42.94,203.04l65,37.52V221.8l-65-37.53Z" fill="#455a64"/>
        <path id="Path_8683" data-name="Path 8683" d="M107.94,240.56l64.99-37.52V184.27L107.94,221.8Z" fill="#37474f"/>
        <path id="Path_8684" data-name="Path 8684" d="M51.07,212.42v-4.7l56.87,32.84v4.69Z" fill="#79aa5f"/>
        <path id="Path_8685" data-name="Path 8685" d="M168.87,205.38v4.69l-60.93,35.18v-4.69Z" fill="#79aa5f"/>
        <path id="Path_8686" data-name="Path 8686" d="M168.87,205.38v4.69l-60.93,35.18v-4.69Z" opacity="0.2"/>
        <path id="Path_8687" data-name="Path 8687" d="M47,191.81v2.13a1,1,0,0,0,.43.75l.49.28a.27.27,0,0,0,.43-.25v-2.13a1,1,0,0,0-.43-.75l-.49-.28C47.2,191.42,47,191.53,47,191.81Z" fill="#79aa5f"/>
        <path id="Path_8688" data-name="Path 8688" d="M49.19,193.07v2.13a1,1,0,0,0,.44.75l.48.28a.27.27,0,0,0,.44-.25v-2.13a1,1,0,0,0-.44-.75l-.48-.28a.27.27,0,0,0-.44.25Z" fill="#263238"/>
        <path id="Path_8689" data-name="Path 8689" d="M51.38,194.33v2.13a1,1,0,0,0,.43.75l.49.28a.272.272,0,0,0,.44-.25v-2.13a1,1,0,0,0-.44-.75l-.49-.28a.27.27,0,0,0-.43.25Z" fill="#79aa5f"/>
        <path id="Path_8690" data-name="Path 8690" d="M53.57,195.59v2.13a1,1,0,0,0,.43.75l.49.28a.266.266,0,0,0,.43-.25v-2.12a.93.93,0,0,0-.43-.75l-.49-.29C53.76,195.21,53.57,195.32,53.57,195.59Z" fill="#263238"/>
        <path id="Path_8691" data-name="Path 8691" d="M55.76,196.86V199a1,1,0,0,0,.43.75l.49.28a.266.266,0,0,0,.43-.25v-2.12a1,1,0,0,0-.43-.75l-.49-.28C56,196.47,55.76,196.58,55.76,196.86Z" fill="#263238"/>
        <path id="Path_8692" data-name="Path 8692" d="M58,198.12v2.12a1,1,0,0,0,.43.75l.49.28a.266.266,0,0,0,.43-.25V198.9a1,1,0,0,0-.43-.75l-.49-.28C58.14,197.73,58,197.84,58,198.12Z" fill="#263238"/>
        <path id="Path_8693" data-name="Path 8693" d="M60.14,199.38v2.12a.93.93,0,0,0,.43.75l.49.29a.27.27,0,0,0,.43-.25v-2.13a1,1,0,0,0-.43-.75l-.49-.28C60.33,199,60.14,199.1,60.14,199.38Z" fill="#263238"/>
        <path id="Path_8694" data-name="Path 8694" d="M62.32,200.64v2.13a1,1,0,0,0,.44.75l.48.28a.27.27,0,0,0,.44-.25v-2.13a1,1,0,0,0-.44-.75l-.48-.28C62.52,200.25,62.32,200.36,62.32,200.64Z" fill="#79aa5f"/>
        <path id="Path_8695" data-name="Path 8695" d="M64.51,201.9V204a1,1,0,0,0,.43.75l.49.28a.27.27,0,0,0,.44-.25v-2.13a1,1,0,0,0-.44-.75l-.49-.28A.281.281,0,0,0,64.51,201.9Z" fill="#79aa5f"/>
        <path id="Path_8696" data-name="Path 8696" d="M66.7,203.16v2.13a1,1,0,0,0,.43.75l.49.28a.266.266,0,0,0,.43-.25V204a.93.93,0,0,0-.43-.75l-.49-.29C66.89,202.78,66.7,202.89,66.7,203.16Z" fill="#79aa5f"/>
        <path id="Path_8697" data-name="Path 8697" d="M68.89,204.43v2.12a1,1,0,0,0,.43.75l.49.28a.266.266,0,0,0,.43-.25v-2.12a.93.93,0,0,0-.43-.75l-.49-.28C69.08,204,68.89,204.15,68.89,204.43Z" fill="#79aa5f"/>
        <path id="Path_8698" data-name="Path 8698" d="M71.08,205.69v2.12a1,1,0,0,0,.43.75l.49.28a.266.266,0,0,0,.43-.25v-2.12a1,1,0,0,0-.43-.75l-.49-.28C71.27,205.3,71.08,205.41,71.08,205.69Z" fill="#263238"/>
        <path id="Path_8699" data-name="Path 8699" d="M73.27,207v2.12a.93.93,0,0,0,.43.75l.49.28a.267.267,0,0,0,.43-.25v-2.12a1,1,0,0,0-.43-.75l-.49-.28C73.46,206.56,73.27,206.67,73.27,207Z" fill="#263238"/>
        <path id="Path_8700" data-name="Path 8700" d="M75.45,208.21v2.13a1,1,0,0,0,.44.75l.48.28a.274.274,0,0,0,.44-.25V209a1,1,0,0,0-.44-.75l-.48-.28C75.65,207.82,75.45,207.93,75.45,208.21Z" fill="#263238"/>
        <path id="Path_8701" data-name="Path 8701" d="M77.64,209.47v2.13a1,1,0,0,0,.44.75l.48.28a.27.27,0,0,0,.44-.25v-2.13a1,1,0,0,0-.44-.75l-.48-.28a.27.27,0,0,0-.44.25Z" fill="#79aa5f"/>
        <path id="Path_8702" data-name="Path 8702" d="M79.83,210.73v2.13a1,1,0,0,0,.43.75l.49.28a.266.266,0,0,0,.43-.25v-2.13a1,1,0,0,0-.43-.75l-.49-.28C80,210.34,79.83,210.46,79.83,210.73Z" fill="#263238"/>
        <path id="Path_8703" data-name="Path 8703" d="M82,212v2.13a1,1,0,0,0,.43.75l.49.28a.266.266,0,0,0,.43-.25v-2.12a.93.93,0,0,0-.43-.75l-.49-.29C82.21,211.61,82,211.72,82,212Z" fill="#263238"/>
        <path id="Path_8704" data-name="Path 8704" d="M47,198.12v2.12a1,1,0,0,0,.43.75l.49.28a.267.267,0,0,0,.43-.25V198.9a1,1,0,0,0-.43-.75l-.49-.28C47.2,197.73,47,197.84,47,198.12Z" fill="#263238"/>
        <path id="Path_8705" data-name="Path 8705" d="M49.19,199.38v2.12a.94.94,0,0,0,.44.75l.48.29a.274.274,0,0,0,.44-.25v-2.13a1,1,0,0,0-.44-.75l-.48-.28C49.39,199,49.19,199.1,49.19,199.38Z" fill="#263238"/>
        <path id="Path_8706" data-name="Path 8706" d="M51.38,200.64v2.13a1,1,0,0,0,.43.75l.49.28a.27.27,0,0,0,.44-.25v-2.13a1,1,0,0,0-.44-.75l-.49-.28C51.58,200.25,51.38,200.36,51.38,200.64Z" fill="#79aa5f"/>
        <path id="Path_8707" data-name="Path 8707" d="M53.57,201.9V204a1,1,0,0,0,.43.75l.49.28a.266.266,0,0,0,.43-.25v-2.13a1,1,0,0,0-.43-.75l-.49-.28A.28.28,0,0,0,53.57,201.9Z" fill="#263238"/>
        <path id="Path_8708" data-name="Path 8708" d="M55.76,203.16v2.13a1,1,0,0,0,.43.75l.49.28a.266.266,0,0,0,.43-.25V204a.93.93,0,0,0-.43-.75l-.49-.29C56,202.78,55.76,202.89,55.76,203.16Z" fill="#263238"/>
        <path id="Path_8709" data-name="Path 8709" d="M58,204.43v2.12a1,1,0,0,0,.43.75l.49.28a.266.266,0,0,0,.43-.25v-2.12a.93.93,0,0,0-.43-.75l-.49-.28C58.14,204,58,204.15,58,204.43Z" fill="#263238"/>
        <path id="Path_8710" data-name="Path 8710" d="M60.14,205.69v2.12a1,1,0,0,0,.43.75l.49.28a.267.267,0,0,0,.43-.25v-2.12a1,1,0,0,0-.43-.75l-.49-.28C60.33,205.3,60.14,205.41,60.14,205.69Z" fill="#263238"/>
        <path id="Path_8711" data-name="Path 8711" d="M62.32,207v2.12a.94.94,0,0,0,.44.75l.48.28a.272.272,0,0,0,.44-.25v-2.12a1,1,0,0,0-.44-.75l-.48-.28C62.52,206.56,62.32,206.67,62.32,207Z" fill="#79aa5f"/>
        <path id="Path_8712" data-name="Path 8712" d="M64.51,208.21v2.13a1,1,0,0,0,.43.75l.49.28a.274.274,0,0,0,.44-.25V209a1,1,0,0,0-.44-.75l-.49-.28C64.71,207.82,64.51,207.93,64.51,208.21Z" fill="#263238"/>
        <path id="Path_8713" data-name="Path 8713" d="M66.7,209.47v2.13a1,1,0,0,0,.43.75l.49.28a.266.266,0,0,0,.43-.25v-2.13a1,1,0,0,0-.43-.75l-.49-.28C66.89,209.08,66.7,209.2,66.7,209.47Z" fill="#263238"/>
        <path id="Path_8714" data-name="Path 8714" d="M68.89,210.73v2.13a1,1,0,0,0,.43.75l.49.28a.266.266,0,0,0,.43-.25v-2.13a1,1,0,0,0-.43-.75l-.49-.28C69.08,210.34,68.89,210.46,68.89,210.73Z" fill="#263238"/>
        <path id="Path_8715" data-name="Path 8715" d="M71.08,212v2.13a1,1,0,0,0,.43.75l.49.28a.266.266,0,0,0,.43-.25v-2.12A.93.93,0,0,0,72,212l-.49-.29A.284.284,0,0,0,71.08,212Z" fill="#79aa5f"/>
        <path id="Path_8716" data-name="Path 8716" d="M73.27,213.26v2.12a1,1,0,0,0,.43.75l.49.28a.267.267,0,0,0,.43-.25V214a1,1,0,0,0-.43-.75L73.7,213A.27.27,0,0,0,73.27,213.26Z" fill="#79aa5f"/>
        <path id="Path_8717" data-name="Path 8717" d="M75.45,214.52v2.12a1,1,0,0,0,.44.75l.48.28a.272.272,0,0,0,.44-.25V215.3a1,1,0,0,0-.44-.75l-.48-.28C75.65,214.13,75.45,214.24,75.45,214.52Z" fill="#263238"/>
        <path id="Path_8718" data-name="Path 8718" d="M77.64,215.78v2.12a.94.94,0,0,0,.44.75l.48.29a.274.274,0,0,0,.44-.25v-2.13a1,1,0,0,0-.44-.75l-.48-.28C77.84,215.39,77.64,215.5,77.64,215.78Z" fill="#263238"/>
        <path id="Path_8719" data-name="Path 8719" d="M79.83,217v2.13a1,1,0,0,0,.43.75l.49.28a.266.266,0,0,0,.43-.25v-2.13a1,1,0,0,0-.43-.75l-.49-.28C80,216.65,79.83,216.76,79.83,217Z" fill="#263238"/>
        <path id="Path_8720" data-name="Path 8720" d="M82,218.3v2.13a1,1,0,0,0,.43.75l.49.28a.266.266,0,0,0,.43-.25v-2.13a1,1,0,0,0-.43-.75l-.49-.28C82.21,217.91,82,218,82,218.3Z" fill="#263238"/>
        <path id="Path_8721" data-name="Path 8721" d="M89.33,219.19l1-.57h0a1.29,1.29,0,0,1,1.32.13A4.16,4.16,0,0,1,93.53,222a1.33,1.33,0,0,1-.55,1.22h0l-.92.53-.17-.28a1.93,1.93,0,0,1-.54-.21A4.16,4.16,0,0,1,89.47,220a1.75,1.75,0,0,1,.06-.48Z" fill="#79aa5f"/>
        <path id="Path_8722" data-name="Path 8722" d="M89.33,219.19l1-.57h0a1.29,1.29,0,0,1,1.32.13A4.16,4.16,0,0,1,93.53,222a1.33,1.33,0,0,1-.55,1.22h0l-.92.53-.17-.28a1.93,1.93,0,0,1-.54-.21A4.16,4.16,0,0,1,89.47,220a1.75,1.75,0,0,1,.06-.48Z" opacity="0.2"/>
        <path id="Path_8723" data-name="Path 8723" d="M90.7,219.3a4.16,4.16,0,0,1,1.88,3.26c0,1.2-.84,1.68-1.88,1.08a4.14,4.14,0,0,1-1.88-3.25C88.82,219.19,89.66,218.7,90.7,219.3Z" fill="#79aa5f"/>
        <path id="Path_8724" data-name="Path 8724" d="M97.5,223.91l1-.58h0a1.34,1.34,0,0,1,1.32.13,4.16,4.16,0,0,1,1.88,3.26,1.33,1.33,0,0,1-.55,1.22h0l-.92.53-.17-.28a1.93,1.93,0,0,1-.54-.21,4.16,4.16,0,0,1-1.88-3.26,1.86,1.86,0,0,1,.06-.48Z" fill="#79aa5f"/>
        <path id="Path_8725" data-name="Path 8725" d="M97.5,223.91l1-.58h0a1.34,1.34,0,0,1,1.32.13,4.16,4.16,0,0,1,1.88,3.26,1.33,1.33,0,0,1-.55,1.22h0l-.92.53-.17-.28a1.93,1.93,0,0,1-.54-.21,4.16,4.16,0,0,1-1.88-3.26,1.86,1.86,0,0,1,.06-.48Z" opacity="0.2"/>
        <path id="Path_8726" data-name="Path 8726" d="M98.87,224a4.16,4.16,0,0,1,1.88,3.26c0,1.2-.84,1.69-1.88,1.09A4.17,4.17,0,0,1,97,225.1C97,223.9,97.83,223.41,98.87,224Z" fill="#79aa5f"/>
        <path id="Path_8727" data-name="Path 8727" d="M42.94,156.13l65,37.53,64.99-37.53-64.99-37.52Z" fill="#263238"/>
        <path id="Path_8728" data-name="Path 8728" d="M42.94,174.89l65,37.53V193.66l-65-37.53Z" fill="#455a64"/>
        <path id="Path_8729" data-name="Path 8729" d="M107.94,212.42l64.99-37.53V156.13l-64.99,37.53Z" fill="#37474f"/>
        <path id="Path_8730" data-name="Path 8730" d="M51.07,184.27v-4.69l56.87,32.84v4.69Z" fill="#79aa5f"/>
        <path id="Path_8731" data-name="Path 8731" d="M168.87,177.24v4.69l-60.93,35.18v-4.69Z" fill="#79aa5f"/>
        <path id="Path_8732" data-name="Path 8732" d="M168.87,177.24v4.69l-60.93,35.18v-4.69Z" opacity="0.2"/>
        <path id="Path_8733" data-name="Path 8733" d="M47,163.67v2.12a1,1,0,0,0,.43.75l.49.28a.267.267,0,0,0,.43-.25v-2.12a1,1,0,0,0-.43-.75l-.49-.28C47.2,163.28,47,163.39,47,163.67Z" fill="#79aa5f"/>
        <path id="Path_8734" data-name="Path 8734" d="M49.19,164.93v2.12a.94.94,0,0,0,.44.75l.48.29a.274.274,0,0,0,.44-.25v-2.13a1,1,0,0,0-.44-.75l-.48-.28C49.39,164.54,49.19,164.65,49.19,164.93Z" fill="#79aa5f"/>
        <path id="Path_8735" data-name="Path 8735" d="M51.38,166.19v2.13a1,1,0,0,0,.43.75l.49.28a.274.274,0,0,0,.44-.25V167a1,1,0,0,0-.44-.75l-.49-.28C51.58,165.8,51.38,165.91,51.38,166.19Z" fill="#263238"/>
        <path id="Path_8736" data-name="Path 8736" d="M53.57,167.45v2.13a1,1,0,0,0,.43.75l.49.28a.266.266,0,0,0,.43-.25v-2.13a1,1,0,0,0-.43-.75L54,167.2C53.76,167.06,53.57,167.18,53.57,167.45Z" fill="#79aa5f"/>
        <path id="Path_8737" data-name="Path 8737" d="M55.76,168.71v2.13a1,1,0,0,0,.43.75l.49.28a.266.266,0,0,0,.43-.25v-2.13a1,1,0,0,0-.43-.75l-.49-.28A.269.269,0,0,0,55.76,168.71Z" fill="#79aa5f"/>
        <path id="Path_8738" data-name="Path 8738" d="M58,170v2.12a1,1,0,0,0,.43.75l.49.28a.266.266,0,0,0,.43-.25v-2.12a.93.93,0,0,0-.43-.75l-.49-.28C58.14,169.59,58,169.7,58,170Z" fill="#263238"/>
        <path id="Path_8739" data-name="Path 8739" d="M60.14,171.24v2.12a1,1,0,0,0,.43.75l.49.28a.267.267,0,0,0,.43-.25V172a1,1,0,0,0-.43-.75l-.49-.28A.28.28,0,0,0,60.14,171.24Z" fill="#263238"/>
        <path id="Path_8740" data-name="Path 8740" d="M62.32,172.5v2.12a.94.94,0,0,0,.44.75l.48.28a.272.272,0,0,0,.44-.25v-2.12a1,1,0,0,0-.44-.75l-.48-.28C62.52,172.11,62.32,172.22,62.32,172.5Z" fill="#79aa5f"/>
        <path id="Path_8741" data-name="Path 8741" d="M64.51,173.76v2.12a1,1,0,0,0,.43.75l.49.29a.274.274,0,0,0,.44-.25v-2.13a1,1,0,0,0-.44-.75l-.49-.28C64.71,173.37,64.51,173.48,64.51,173.76Z" fill="#263238"/>
        <path id="Path_8742" data-name="Path 8742" d="M66.7,175v2.13a1,1,0,0,0,.43.75l.49.28a.266.266,0,0,0,.43-.25V175.8a1,1,0,0,0-.43-.75l-.49-.28C66.89,174.63,66.7,174.75,66.7,175Z" fill="#79aa5f"/>
        <path id="Path_8743" data-name="Path 8743" d="M68.89,176.28v2.13a1,1,0,0,0,.43.75l.49.28a.266.266,0,0,0,.43-.25v-2.13a1,1,0,0,0-.43-.75l-.49-.28C69.08,175.89,68.89,176,68.89,176.28Z" fill="#79aa5f"/>
        <path id="Path_8744" data-name="Path 8744" d="M71.08,177.54v2.13a1,1,0,0,0,.43.75l.49.28a.266.266,0,0,0,.43-.25v-2.12a.93.93,0,0,0-.43-.75l-.49-.29C71.27,177.16,71.08,177.27,71.08,177.54Z" fill="#79aa5f"/>
        <path id="Path_8745" data-name="Path 8745" d="M73.27,178.81v2.12a1,1,0,0,0,.43.75l.49.28a.267.267,0,0,0,.43-.25v-2.12a1,1,0,0,0-.43-.75l-.49-.28C73.46,178.42,73.27,178.53,73.27,178.81Z" fill="#79aa5f"/>
        <path id="Path_8746" data-name="Path 8746" d="M75.45,180.07v2.12a1,1,0,0,0,.44.75l.48.28a.272.272,0,0,0,.44-.25v-2.12a1,1,0,0,0-.44-.75l-.48-.28C75.65,179.68,75.45,179.79,75.45,180.07Z" fill="#263238"/>
        <path id="Path_8747" data-name="Path 8747" d="M77.64,181.33v2.12a.94.94,0,0,0,.44.75l.48.29a.274.274,0,0,0,.44-.25v-2.13a1,1,0,0,0-.44-.75l-.48-.28C77.84,180.94,77.64,181.05,77.64,181.33Z" fill="#263238"/>
        <path id="Path_8748" data-name="Path 8748" d="M79.83,182.59v2.13a1,1,0,0,0,.43.75l.49.28a.268.268,0,0,0,.43-.25v-2.13a1,1,0,0,0-.43-.75l-.49-.28C80,182.2,79.83,182.31,79.83,182.59Z" fill="#263238"/>
        <path id="Path_8749" data-name="Path 8749" d="M82,183.85V186a1,1,0,0,0,.43.75l.49.28a.266.266,0,0,0,.43-.25v-2.13a1,1,0,0,0-.43-.75l-.49-.28C82.21,183.46,82,183.58,82,183.85Z" fill="#79aa5f"/>
        <path id="Path_8750" data-name="Path 8750" d="M47,170v2.12a1,1,0,0,0,.43.75l.49.28a.267.267,0,0,0,.43-.25v-2.12a1,1,0,0,0-.43-.75l-.49-.28C47.2,169.59,47,169.7,47,170Z" fill="#79aa5f"/>
        <path id="Path_8751" data-name="Path 8751" d="M49.19,171.24v2.12a1,1,0,0,0,.44.75l.48.28a.272.272,0,0,0,.44-.25V172a1,1,0,0,0-.44-.75l-.48-.28A.286.286,0,0,0,49.19,171.24Z" fill="#79aa5f"/>
        <path id="Path_8752" data-name="Path 8752" d="M51.38,172.5v2.12a1,1,0,0,0,.43.75l.49.28a.272.272,0,0,0,.44-.25v-2.12a1,1,0,0,0-.44-.75l-.49-.28C51.58,172.11,51.38,172.22,51.38,172.5Z" fill="#79aa5f"/>
        <path id="Path_8753" data-name="Path 8753" d="M53.57,173.76v2.12a.93.93,0,0,0,.43.75l.49.29a.268.268,0,0,0,.43-.25v-2.13a1,1,0,0,0-.43-.75l-.49-.28C53.76,173.37,53.57,173.48,53.57,173.76Z" fill="#263238"/>
        <path id="Path_8754" data-name="Path 8754" d="M55.76,175v2.13a1,1,0,0,0,.43.75l.49.28a.266.266,0,0,0,.43-.25V175.8a1,1,0,0,0-.43-.75l-.49-.28A.264.264,0,0,0,55.76,175Z" fill="#263238"/>
        <path id="Path_8755" data-name="Path 8755" d="M58,176.28v2.13a1,1,0,0,0,.43.75l.49.28a.266.266,0,0,0,.43-.25v-2.13a1,1,0,0,0-.43-.75l-.49-.28C58.14,175.89,58,176,58,176.28Z" fill="#79aa5f"/>
        <path id="Path_8756" data-name="Path 8756" d="M60.14,177.54v2.13a1,1,0,0,0,.43.75l.49.28a.267.267,0,0,0,.43-.25v-2.12a1,1,0,0,0-.43-.75l-.49-.29C60.33,177.16,60.14,177.27,60.14,177.54Z" fill="#79aa5f"/>
        <path id="Path_8757" data-name="Path 8757" d="M62.32,178.81v2.12a1,1,0,0,0,.44.75l.48.28a.272.272,0,0,0,.44-.25v-2.12a1,1,0,0,0-.44-.75l-.48-.28C62.52,178.42,62.32,178.53,62.32,178.81Z" fill="#79aa5f"/>
        <path id="Path_8758" data-name="Path 8758" d="M64.51,180.07v2.12a1,1,0,0,0,.43.75l.49.28a.272.272,0,0,0,.44-.25v-2.12a1,1,0,0,0-.44-.75l-.49-.28C64.71,179.68,64.51,179.79,64.51,180.07Z" fill="#263238"/>
        <path id="Path_8759" data-name="Path 8759" d="M66.7,181.33v2.12a.93.93,0,0,0,.43.75l.49.29a.268.268,0,0,0,.43-.25v-2.13a1,1,0,0,0-.43-.75l-.49-.28C66.89,180.94,66.7,181.05,66.7,181.33Z" fill="#263238"/>
        <path id="Path_8760" data-name="Path 8760" d="M68.89,182.59v2.13a1,1,0,0,0,.43.75l.49.28a.268.268,0,0,0,.43-.25v-2.13a1,1,0,0,0-.43-.75l-.49-.28C69.08,182.2,68.89,182.31,68.89,182.59Z" fill="#263238"/>
        <path id="Path_8761" data-name="Path 8761" d="M71.08,183.85V186a1,1,0,0,0,.43.75L72,187a.266.266,0,0,0,.43-.25v-2.13a1,1,0,0,0-.43-.75l-.49-.28C71.27,183.46,71.08,183.58,71.08,183.85Z" fill="#263238"/>
        <path id="Path_8762" data-name="Path 8762" d="M73.27,185.11v2.13a1,1,0,0,0,.43.75l.49.28a.267.267,0,0,0,.43-.25v-2.13a1,1,0,0,0-.43-.75l-.49-.28C73.46,184.73,73.27,184.84,73.27,185.11Z" fill="#79aa5f"/>
        <path id="Path_8763" data-name="Path 8763" d="M75.45,186.37v2.13a1,1,0,0,0,.44.75l.48.28a.272.272,0,0,0,.44-.25v-2.12a.94.94,0,0,0-.44-.75l-.48-.29C75.65,186,75.45,186.1,75.45,186.37Z" fill="#79aa5f"/>
        <path id="Path_8764" data-name="Path 8764" d="M77.64,187.64v2.12a1,1,0,0,0,.44.75l.48.28a.272.272,0,0,0,.44-.25v-2.12a1,1,0,0,0-.44-.75l-.48-.28C77.84,187.25,77.64,187.36,77.64,187.64Z" fill="#79aa5f"/>
        <path id="Path_8765" data-name="Path 8765" d="M79.83,188.9V191a.93.93,0,0,0,.43.75l.49.28a.266.266,0,0,0,.43-.25v-2.12a1,1,0,0,0-.43-.75l-.49-.28C80,188.51,79.83,188.62,79.83,188.9Z" fill="#79aa5f"/>
        <path id="Path_8766" data-name="Path 8766" d="M82,190.16v2.12a.93.93,0,0,0,.43.75l.49.29a.268.268,0,0,0,.43-.25v-2.13a1,1,0,0,0-.43-.75l-.49-.28C82.21,189.77,82,189.88,82,190.16Z" fill="#79aa5f"/>
        <path id="Path_8767" data-name="Path 8767" d="M89.33,191.05l1-.57h0a1.32,1.32,0,0,1,1.32.14,4.16,4.16,0,0,1,1.88,3.26,1.3,1.3,0,0,1-.55,1.21h0l-.92.52-.17-.27a2.3,2.3,0,0,1-.54-.21,4.16,4.16,0,0,1-1.88-3.26,1.751,1.751,0,0,1,.06-.48Z" fill="#79aa5f"/>
        <path id="Path_8768" data-name="Path 8768" d="M89.33,191.05l1-.57h0a1.32,1.32,0,0,1,1.32.14,4.16,4.16,0,0,1,1.88,3.26,1.3,1.3,0,0,1-.55,1.21h0l-.92.52-.17-.27a2.3,2.3,0,0,1-.54-.21,4.16,4.16,0,0,1-1.88-3.26,1.751,1.751,0,0,1,.06-.48Z" opacity="0.2"/>
        <path id="Path_8769" data-name="Path 8769" d="M90.7,191.16a4.16,4.16,0,0,1,1.88,3.26c0,1.2-.84,1.68-1.88,1.08a4.16,4.16,0,0,1-1.88-3.26C88.82,191,89.66,190.56,90.7,191.16Z" fill="#79aa5f"/>
        <path id="Path_8770" data-name="Path 8770" d="M97.5,195.76l1-.57h0a1.32,1.32,0,0,1,1.32.13,4.16,4.16,0,0,1,1.88,3.26,1.33,1.33,0,0,1-.55,1.22h0l-.92.53-.17-.28a1.93,1.93,0,0,1-.54-.21,4.16,4.16,0,0,1-1.88-3.26,1.8,1.8,0,0,1,.06-.48Z" fill="#79aa5f"/>
        <path id="Path_8771" data-name="Path 8771" d="M97.5,195.76l1-.57h0a1.32,1.32,0,0,1,1.32.13,4.16,4.16,0,0,1,1.88,3.26,1.33,1.33,0,0,1-.55,1.22h0l-.92.53-.17-.28a1.93,1.93,0,0,1-.54-.21,4.16,4.16,0,0,1-1.88-3.26,1.8,1.8,0,0,1,.06-.48Z" opacity="0.2"/>
        <path id="Path_8772" data-name="Path 8772" d="M98.87,195.87a4.16,4.16,0,0,1,1.88,3.26c0,1.2-.84,1.69-1.88,1.09A4.17,4.17,0,0,1,97,197C97,195.76,97.83,195.27,98.87,195.87Z" fill="#79aa5f"/>
        <path id="Path_8773" data-name="Path 8773" d="M170.33,126.49,110.5,92a5.8,5.8,0,0,0-5.2,0L45.54,126.49a5.76,5.76,0,0,0-2.6,4.5v15.76l65,37.52h0l65-37.52V131A5.76,5.76,0,0,0,170.33,126.49Z" fill="#37474f"/>
        <path id="Path_8774" data-name="Path 8774" d="M108,164.63v19.64L43,146.75V131a5.81,5.81,0,0,1,2.13-4.17c-1,.83-.79,1.94.47,2.67L105.38,164A5.31,5.31,0,0,0,108,164.63Z" fill="#455a64"/>
        <path id="Path_8775" data-name="Path 8775" d="M45.54,129.49,105.38,164a5.72,5.72,0,0,0,5.19,0l59.76-34.52c1.44-.83,1.44-2.17,0-3L110.5,92a5.8,5.8,0,0,0-5.2,0L45.54,126.49C44.1,127.32,44.1,128.66,45.54,129.49Z" fill="#263238"/>
        <path id="Path_8776" data-name="Path 8776" d="M51.07,156.13v-4.69l56.87,32.83v4.69Z" fill="#79aa5f"/>
        <path id="Path_8777" data-name="Path 8777" d="M168.87,149.09v4.69l-60.93,35.18v-4.69Z" fill="#79aa5f"/>
        <path id="Path_8778" data-name="Path 8778" d="M168.87,149.09v4.69l-60.93,35.18v-4.69Z" opacity="0.2"/>
        <path id="Path_8779" data-name="Path 8779" d="M47,135.52v2.13a1,1,0,0,0,.43.75l.49.28a.267.267,0,0,0,.43-.25v-2.12a1,1,0,0,0-.43-.75l-.49-.29A.265.265,0,0,0,47,135.52Z" fill="#263238"/>
        <path id="Path_8780" data-name="Path 8780" d="M49.19,136.79v2.12a1,1,0,0,0,.44.75l.48.28a.272.272,0,0,0,.44-.25v-2.12a1,1,0,0,0-.44-.75l-.48-.28C49.39,136.4,49.19,136.51,49.19,136.79Z" fill="#263238"/>
        <path id="Path_8781" data-name="Path 8781" d="M51.38,138.05v2.12a1,1,0,0,0,.43.75l.49.28a.272.272,0,0,0,.44-.25v-2.12a1,1,0,0,0-.44-.75l-.49-.28C51.58,137.66,51.38,137.77,51.38,138.05Z" fill="#263238"/>
        <path id="Path_8782" data-name="Path 8782" d="M53.57,139.31v2.12a.93.93,0,0,0,.43.75l.49.29a.268.268,0,0,0,.43-.25v-2.13a1,1,0,0,0-.43-.75l-.49-.28C53.76,138.92,53.57,139,53.57,139.31Z" fill="#79aa5f"/>
        <path id="Path_8783" data-name="Path 8783" d="M55.76,140.57v2.13a1,1,0,0,0,.43.75l.49.28a.266.266,0,0,0,.43-.25v-2.13a1,1,0,0,0-.43-.75l-.49-.28C56,140.18,55.76,140.29,55.76,140.57Z" fill="#79aa5f"/>
        <path id="Path_8784" data-name="Path 8784" d="M58,141.83V144a1,1,0,0,0,.43.75l.49.28a.266.266,0,0,0,.43-.25v-2.13a1,1,0,0,0-.43-.75l-.49-.28C58.14,141.44,58,141.56,58,141.83Z" fill="#263238"/>
        <path id="Path_8785" data-name="Path 8785" d="M60.14,143.09v2.13a1,1,0,0,0,.43.75l.49.28a.267.267,0,0,0,.43-.25v-2.12a1,1,0,0,0-.43-.75l-.49-.29C60.33,142.71,60.14,142.82,60.14,143.09Z" fill="#263238"/>
        <path id="Path_8786" data-name="Path 8786" d="M62.32,144.36v2.12a1,1,0,0,0,.44.75l.48.28a.272.272,0,0,0,.44-.25v-2.12a.94.94,0,0,0-.44-.75l-.48-.28C62.52,144,62.32,144.08,62.32,144.36Z" fill="#263238"/>
        <path id="Path_8787" data-name="Path 8787" d="M64.51,145.62v2.12a1,1,0,0,0,.43.75l.49.28a.272.272,0,0,0,.44-.25V146.4a1,1,0,0,0-.44-.75l-.49-.28C64.71,145.23,64.51,145.34,64.51,145.62Z" fill="#263238"/>
        <path id="Path_8788" data-name="Path 8788" d="M66.7,146.88V149a.93.93,0,0,0,.43.75l.49.28a.266.266,0,0,0,.43-.25v-2.12a1,1,0,0,0-.43-.75l-.49-.28C66.89,146.49,66.7,146.6,66.7,146.88Z" fill="#263238"/>
        <path id="Path_8789" data-name="Path 8789" d="M68.89,148.14v2.13a1,1,0,0,0,.43.75l.49.28a.268.268,0,0,0,.43-.25v-2.13a1,1,0,0,0-.43-.75l-.49-.28C69.08,147.75,68.89,147.86,68.89,148.14Z" fill="#79aa5f"/>
        <path id="Path_8790" data-name="Path 8790" d="M71.08,149.4v2.13a1,1,0,0,0,.43.75l.49.28a.266.266,0,0,0,.43-.25v-2.13a1,1,0,0,0-.43-.75l-.49-.28C71.27,149,71.08,149.13,71.08,149.4Z" fill="#79aa5f"/>
        <path id="Path_8791" data-name="Path 8791" d="M73.27,150.66v2.13a1,1,0,0,0,.43.75l.49.28a.267.267,0,0,0,.43-.25v-2.13a1,1,0,0,0-.43-.75l-.49-.28C73.46,150.28,73.27,150.39,73.27,150.66Z" fill="#263238"/>
        <path id="Path_8792" data-name="Path 8792" d="M75.45,151.92v2.13a1,1,0,0,0,.44.75l.48.28a.272.272,0,0,0,.44-.25v-2.12a.94.94,0,0,0-.44-.75l-.48-.29C75.65,151.54,75.45,151.65,75.45,151.92Z" fill="#79aa5f"/>
        <path id="Path_8793" data-name="Path 8793" d="M77.64,153.19v2.12a1,1,0,0,0,.44.75l.48.28a.272.272,0,0,0,.44-.25V154a1,1,0,0,0-.44-.75l-.48-.28C77.84,152.8,77.64,152.91,77.64,153.19Z" fill="#263238"/>
        <path id="Path_8794" data-name="Path 8794" d="M79.83,154.45v2.12a1,1,0,0,0,.43.75l.49.28a.266.266,0,0,0,.43-.25v-2.12a1,1,0,0,0-.43-.75l-.49-.28C80,154.06,79.83,154.17,79.83,154.45Z" fill="#263238"/>
        <path id="Path_8795" data-name="Path 8795" d="M82,155.71v2.12a.93.93,0,0,0,.43.75l.49.29a.268.268,0,0,0,.43-.25v-2.13a1,1,0,0,0-.43-.75l-.49-.28C82.21,155.32,82,155.43,82,155.71Z" fill="#263238"/>
        <path id="Path_8796" data-name="Path 8796" d="M47,141.83V144a1,1,0,0,0,.43.75l.49.28a.267.267,0,0,0,.43-.25v-2.13a1,1,0,0,0-.43-.75l-.49-.28C47.2,141.44,47,141.56,47,141.83Z" fill="#79aa5f"/>
        <path id="Path_8797" data-name="Path 8797" d="M49.19,143.09v2.13a1,1,0,0,0,.44.75l.48.28a.272.272,0,0,0,.44-.25v-2.12a.94.94,0,0,0-.44-.75l-.48-.29C49.39,142.71,49.19,142.82,49.19,143.09Z" fill="#263238"/>
        <path id="Path_8798" data-name="Path 8798" d="M51.38,144.36v2.12a1,1,0,0,0,.43.75l.49.28a.272.272,0,0,0,.44-.25v-2.12a.94.94,0,0,0-.44-.75l-.49-.28C51.58,144,51.38,144.08,51.38,144.36Z" fill="#263238"/>
        <path id="Path_8799" data-name="Path 8799" d="M53.57,145.62v2.12a1,1,0,0,0,.43.75l.49.28a.266.266,0,0,0,.43-.25V146.4a1,1,0,0,0-.43-.75l-.49-.28C53.76,145.23,53.57,145.34,53.57,145.62Z" fill="#263238"/>
        <path id="Path_8800" data-name="Path 8800" d="M55.76,146.88V149a.93.93,0,0,0,.43.75l.49.28a.266.266,0,0,0,.43-.25v-2.12a1,1,0,0,0-.43-.75l-.49-.28C56,146.49,55.76,146.6,55.76,146.88Z" fill="#263238"/>
        <path id="Path_8801" data-name="Path 8801" d="M58,148.14v2.13a1,1,0,0,0,.43.75l.49.28a.268.268,0,0,0,.43-.25v-2.13a1,1,0,0,0-.43-.75l-.49-.28C58.14,147.75,58,147.86,58,148.14Z" fill="#79aa5f"/>
        <path id="Path_8802" data-name="Path 8802" d="M60.14,149.4v2.13a1,1,0,0,0,.43.75l.49.28a.267.267,0,0,0,.43-.25v-2.13a1,1,0,0,0-.43-.75l-.49-.28C60.33,149,60.14,149.13,60.14,149.4Z" fill="#263238"/>
        <path id="Path_8803" data-name="Path 8803" d="M62.32,150.66v2.13a1,1,0,0,0,.44.75l.48.28a.272.272,0,0,0,.44-.25v-2.13a1,1,0,0,0-.44-.75l-.48-.28C62.52,150.28,62.32,150.39,62.32,150.66Z" fill="#79aa5f"/>
        <path id="Path_8804" data-name="Path 8804" d="M64.51,151.92v2.13a1,1,0,0,0,.43.75l.49.28a.272.272,0,0,0,.44-.25v-2.12a.94.94,0,0,0-.44-.75l-.49-.29a.27.27,0,0,0-.43.25Z" fill="#263238"/>
        <path id="Path_8805" data-name="Path 8805" d="M66.7,153.19v2.12a1,1,0,0,0,.43.75l.49.28a.266.266,0,0,0,.43-.25V154a1,1,0,0,0-.43-.75l-.49-.28C66.89,152.8,66.7,152.91,66.7,153.19Z" fill="#79aa5f"/>
        <path id="Path_8806" data-name="Path 8806" d="M68.89,154.45v2.12a1,1,0,0,0,.43.75l.49.28a.266.266,0,0,0,.43-.25v-2.12a1,1,0,0,0-.43-.75l-.49-.28C69.08,154.06,68.89,154.17,68.89,154.45Z" fill="#263238"/>
        <path id="Path_8807" data-name="Path 8807" d="M71.08,155.71v2.12a.93.93,0,0,0,.43.75l.49.29a.268.268,0,0,0,.43-.25v-2.13a1,1,0,0,0-.43-.75l-.49-.28C71.27,155.32,71.08,155.43,71.08,155.71Z" fill="#263238"/>
        <path id="Path_8808" data-name="Path 8808" d="M73.27,157v2.13a1,1,0,0,0,.43.75l.49.28a.267.267,0,0,0,.43-.25v-2.13a1,1,0,0,0-.43-.75l-.49-.28C73.46,156.58,73.27,156.69,73.27,157Z" fill="#263238"/>
        <path id="Path_8809" data-name="Path 8809" d="M75.45,158.23v2.13a1,1,0,0,0,.44.75l.48.28a.27.27,0,0,0,.44-.25V159a1,1,0,0,0-.44-.75l-.48-.28a.27.27,0,0,0-.44.26Z" fill="#263238"/>
        <path id="Path_8810" data-name="Path 8810" d="M77.64,159.49v2.13a1,1,0,0,0,.44.75l.48.28a.272.272,0,0,0,.44-.25v-2.12a.94.94,0,0,0-.44-.75l-.48-.29C77.84,159.11,77.64,159.22,77.64,159.49Z" fill="#263238"/>
        <path id="Path_8811" data-name="Path 8811" d="M79.83,160.76v2.12a1,1,0,0,0,.43.75l.49.28a.266.266,0,0,0,.43-.25v-2.12a.93.93,0,0,0-.43-.75l-.49-.28C80,160.37,79.83,160.48,79.83,160.76Z" fill="#79aa5f"/>
        <path id="Path_8812" data-name="Path 8812" d="M82,162v2.12a1,1,0,0,0,.43.75l.49.28a.266.266,0,0,0,.43-.25v-2.1a1,1,0,0,0-.43-.75l-.49-.28A.259.259,0,0,0,82,162Z" fill="#263238"/>
        <path id="Path_8813" data-name="Path 8813" d="M89.33,162.91l1-.58h0a1.34,1.34,0,0,1,1.32.13,4.16,4.16,0,0,1,1.88,3.26,1.33,1.33,0,0,1-.55,1.22h0l-.92.53-.17-.28a1.93,1.93,0,0,1-.54-.21,4.16,4.16,0,0,1-1.88-3.26,1.86,1.86,0,0,1,.06-.48Z" fill="#79aa5f"/>
        <path id="Path_8814" data-name="Path 8814" d="M89.33,162.91l1-.58h0a1.34,1.34,0,0,1,1.32.13,4.16,4.16,0,0,1,1.88,3.26,1.33,1.33,0,0,1-.55,1.22h0l-.92.53-.17-.28a1.93,1.93,0,0,1-.54-.21,4.16,4.16,0,0,1-1.88-3.26,1.86,1.86,0,0,1,.06-.48Z" opacity="0.2"/>
        <path id="Path_8815" data-name="Path 8815" d="M90.7,163a4.16,4.16,0,0,1,1.88,3.26c0,1.2-.84,1.69-1.88,1.09a4.16,4.16,0,0,1-1.88-3.26C88.82,162.9,89.66,162.41,90.7,163Z" fill="#79aa5f"/>
        <path id="Path_8816" data-name="Path 8816" d="M97.5,167.62l1-.57h0a1.32,1.32,0,0,1,1.32.14,4.16,4.16,0,0,1,1.88,3.26,1.33,1.33,0,0,1-.55,1.22h0l-.92.53-.17-.28a1.93,1.93,0,0,1-.54-.21,4.16,4.16,0,0,1-1.88-3.26,1.75,1.75,0,0,1,.06-.48Z" fill="#79aa5f"/>
        <path id="Path_8817" data-name="Path 8817" d="M97.5,167.62l1-.57h0a1.32,1.32,0,0,1,1.32.14,4.16,4.16,0,0,1,1.88,3.26,1.33,1.33,0,0,1-.55,1.22h0l-.92.53-.17-.28a1.93,1.93,0,0,1-.54-.21,4.16,4.16,0,0,1-1.88-3.26,1.75,1.75,0,0,1,.06-.48Z" opacity="0.2"/>
        <path id="Path_8818" data-name="Path 8818" d="M98.87,167.73a4.16,4.16,0,0,1,1.88,3.26c0,1.2-.84,1.68-1.88,1.08A4.17,4.17,0,0,1,97,168.81C97,167.61,97.83,167.13,98.87,167.73Z" fill="#79aa5f"/>
      </g>
    </g>
    <g id="freepik--Device--inject-2">
      <g id="freepik--Laptop--inject-2">
        <g id="freepik--laptop--inject-2-2" data-name="freepik--laptop--inject-2">
          <path id="Path_8819" data-name="Path 8819" d="M134.91,338.6a8.43,8.43,0,0,0,3.94,6.54l110.29,63.68a8.75,8.75,0,0,0,7.88,0l150.91-87.13a7.4,7.4,0,0,0,0-13.08l-110.3-63.67a8.67,8.67,0,0,0-7.87,0L138.85,332.07a8.42,8.42,0,0,0-3.94,6.53Z" fill="#79aa5f"/>
          <path id="Path_8820" data-name="Path 8820" d="M253.08,401.24v8.52a8,8,0,0,1-3.94-.94L138.85,345.14a7.37,7.37,0,0,1-.4-12.82c-1.77,1.26-1.63,3.12.4,4.29l110.29,63.68A8,8,0,0,0,253.08,401.24Z" fill="#fff" opacity="0.2"/>
          <path id="Path_8821" data-name="Path 8821" d="M131.22,332.21a8.45,8.45,0,0,1-3.69-6.68V193.91a8.72,8.72,0,0,1,3.93-6.82L282.38,100a7.4,7.4,0,0,1,11.32,6.54V238.12a8.7,8.7,0,0,1-3.94,6.82L138.85,332.07a8.48,8.48,0,0,1-7.63.14Z" fill="#79aa5f"/>
          <path id="Path_8822" data-name="Path 8822" d="M138.38,332.3a7.37,7.37,0,0,1-10.85-6.77V193.91a8,8,0,0,1,1.15-3.88l7.39,4.26h0a8,8,0,0,0-1.16,3.87V329.79C134.91,332.12,136.43,333.17,138.38,332.3Z" fill="#fff" opacity="0.2"/>
          <path id="Path_8823" data-name="Path 8823" d="M134.91,198.17V329.79c0,2.51,1.76,3.53,3.94,2.28l150.91-87.13a8.7,8.7,0,0,0,3.94-6.82V106.5c0-2.51-1.76-3.53-3.94-2.27L138.85,191.35a8.7,8.7,0,0,0-3.94,6.82Z" fill="#fff" opacity="0.4"/>
          <path id="Path_8824" data-name="Path 8824" d="M138.85,336.61l110.29,63.68a8.75,8.75,0,0,0,7.88,0l150.91-87.13c2.17-1.26,2.17-3.29,0-4.55l-110.3-63.67a8.67,8.67,0,0,0-7.87,0L138.85,332.07C136.67,333.32,136.67,335.36,138.85,336.61Z" fill="#79aa5f"/>
          <path id="Path_8825" data-name="Path 8825" d="M138.85,336.61l110.29,63.68a8.75,8.75,0,0,0,7.88,0l150.91-87.13c2.17-1.26,2.17-3.29,0-4.55l-110.3-63.67a8.67,8.67,0,0,0-7.87,0L138.85,332.07C136.67,333.32,136.67,335.36,138.85,336.61Z" fill="#fff" opacity="0.6"/>
          <path id="Path_8826" data-name="Path 8826" d="M141,198.66l145.5-84c1.3-.76,2.36-.15,2.36,1.36V230a5.23,5.23,0,0,1-2.36,4.09l-145.5,84c-1.31.75-2.37.14-2.37-1.36V202.75a5.2,5.2,0,0,1,2.37-4.09Z" fill="#455a64"/>
          <path id="Path_8827" data-name="Path 8827" d="M151.65,333.2l140.08-80.87a4.34,4.34,0,0,1,3.94,0l7.16,4.13a1.2,1.2,0,0,1,0,2.28L162.73,339.6a4.34,4.34,0,0,1-3.94,0l-7.14-4.13a1.2,1.2,0,0,1,0-2.27Z" fill="#79aa5f"/>
          <path id="Path_8828" data-name="Path 8828" d="M151.65,333.2l140.08-80.87a4.34,4.34,0,0,1,3.94,0l7.16,4.13a1.2,1.2,0,0,1,0,2.28L162.73,339.6a4.34,4.34,0,0,1-3.94,0l-7.14-4.13a1.2,1.2,0,0,1,0-2.27Z" fill="#fff" opacity="0.4"/>
          <path id="Path_8829" data-name="Path 8829" d="M170.12,343.86,310.19,263a4.34,4.34,0,0,1,3.94,0l44.07,25.44a1.2,1.2,0,0,1,0,2.27L218.28,371.47a4.37,4.37,0,0,1-3.94,0l-44.22-25.34a1.2,1.2,0,0,1,0-2.27Z" fill="#79aa5f"/>
          <path id="Path_8830" data-name="Path 8830" d="M170.12,343.86,310.19,263a4.34,4.34,0,0,1,3.94,0l44.07,25.44a1.2,1.2,0,0,1,0,2.27L218.28,371.47a4.37,4.37,0,0,1-3.94,0l-44.22-25.34a1.2,1.2,0,0,1,0-2.27Z" fill="#fff" opacity="0.4"/>
          <path id="Path_8831" data-name="Path 8831" d="M295.68,299.37l4.39-2.53c.19-.11.17-.29,0-.4L295,293.51a.79.79,0,0,0-.7,0L289.89,296c-.19.1-.18.29,0,.4l5.07,2.93a.78.78,0,0,0,.72.04ZM287,289.31l-4.39,2.53a.226.226,0,0,0,0,.41l5.07,2.93a.78.78,0,0,0,.7,0l4.38-2.53c.19-.11.18-.29,0-.41l-5.07-2.92A.76.76,0,0,0,287,289.31Zm-14.17,8.18-7.42,4.29a.214.214,0,0,0,0,.4l5.07,2.93a.75.75,0,0,0,.7,0l7.42-4.28a.214.214,0,0,0,0-.4l-5.07-2.93a.79.79,0,0,0-.67-.01Zm7.76-4.48-4.39,2.54c-.18.1-.17.28,0,.4l5.07,2.93a.78.78,0,0,0,.7,0l4.38-2.53a.214.214,0,0,0,0-.4L281.32,293a.79.79,0,0,0-.7,0ZM263.41,303,259,305.48a.214.214,0,0,0,0,.4l5.07,2.93a.79.79,0,0,0,.7,0l4.39-2.54a.218.218,0,0,0,0-.4L264.11,303A.78.78,0,0,0,263.41,303ZM257,306.7l-4.38,2.53a.214.214,0,0,0,0,.4l5.07,2.93a.79.79,0,0,0,.7,0L262.8,310c.18-.1.17-.28,0-.4l-5.07-2.93a.78.78,0,0,0-.73-.02Zm20,11.85,4.39-2.53a.218.218,0,0,0,0-.4l-5.07-2.93a.75.75,0,0,0-.7,0l-4.39,2.53a.218.218,0,0,0,0,.4l5.07,2.93a.75.75,0,0,0,.7,0Zm-6.41,3.71,4.39-2.54a.218.218,0,0,0,0-.4l-5.07-2.93a.78.78,0,0,0-.7,0l-4.39,2.53a.218.218,0,0,0,0,.4l5.07,2.93a.79.79,0,0,0,.65.01Zm-6.41,3.7,4.39-2.54c.18-.1.17-.28,0-.4l-5.07-2.93a.78.78,0,0,0-.7,0l-4.39,2.53a.218.218,0,0,0,0,.4l5.07,2.93a.79.79,0,0,0,.65.05Zm-6.41,3.7,4.39-2.53a.226.226,0,0,0,0-.41L257,323.79a.78.78,0,0,0-.7,0l-4.39,2.53a.226.226,0,0,0,0,.41l5.07,2.92a.75.75,0,0,0,.74.01Zm31.55-26.59,4.39-2.53c.19-.11.17-.29,0-.4l-5.07-2.93a.75.75,0,0,0-.7,0l-4.38,2.53a.214.214,0,0,0,0,.4l5.07,2.93a.75.75,0,0,0,.64,0Zm-5.91,11.78,9.78-5.65c.19-.1.18-.28,0-.4l-12.32-7.11a.75.75,0,0,0-.7,0L275,304.6a.218.218,0,0,0,0,.4l6.52,3.77c.2.11.21.29,0,.4l-4.05,2.34a.218.218,0,0,0,0,.4l5.07,2.93a.78.78,0,0,0,.82.01Zm-32.77-4.5-4.38,2.53a.214.214,0,0,0,0,.4l5.07,2.93a.79.79,0,0,0,.7,0l4.39-2.53a.226.226,0,0,0,0-.41l-5.07-2.93a.78.78,0,0,0-.76.01Zm-6.41,3.7-4.38,2.53c-.19.11-.18.29,0,.41l5.07,2.92a.76.76,0,0,0,.7,0L250,317.4a.226.226,0,0,0,0-.41l-5.07-2.93a.78.78,0,0,0-.75-.01Zm-32,41.5a.78.78,0,0,0,.7,0l4.38-2.53a.214.214,0,0,0,0-.4l-5.07-2.93a.75.75,0,0,0-.7,0l-4.39,2.53a.218.218,0,0,0,0,.4ZM192.9,343.66l-4.39,2.53a.218.218,0,0,0,0,.4l5.07,2.93a.79.79,0,0,0,.7,0L198.7,347a.218.218,0,0,0,0-.4l-5.07-2.93a.78.78,0,0,0-.73-.01Zm10.32,8.68a.75.75,0,0,0,.7,0l4.38-2.53a.214.214,0,0,0,0-.4l-5.07-2.93a.75.75,0,0,0-.7,0L198.12,349c-.19.11-.17.29,0,.4Zm20.25,5.46,4.38-2.53c.19-.11.18-.29,0-.41l-5.07-2.93a.78.78,0,0,0-.7,0l-4.39,2.53a.226.226,0,0,0,0,.41l5.07,2.92a.75.75,0,0,0,.71.01Zm-7.11,3.69a.78.78,0,0,0,.7,0l4.38-2.53c.19-.11.18-.29,0-.41l-5.07-2.92a.76.76,0,0,0-.7,0l-4.39,2.53a.226.226,0,0,0,0,.41ZM199.31,340l-4.39,2.53a.218.218,0,0,0,0,.4l5.07,2.93a.75.75,0,0,0,.7,0l4.39-2.53a.218.218,0,0,0,0-.4L200,340A.75.75,0,0,0,199.31,340Zm32.05-18.51L227,324c-.19.11-.18.29,0,.41l5.07,2.93a.78.78,0,0,0,.7,0l4.39-2.53a.226.226,0,0,0,0-.41l-5.07-2.92a.75.75,0,0,0-.73-.03ZM205.72,336.3l-4.39,2.53a.218.218,0,0,0,0,.4l5.07,2.93a.78.78,0,0,0,.7,0l4.39-2.53a.218.218,0,0,0,0-.4l-5.07-2.93a.75.75,0,0,0-.7-.04Zm32.05-18.51-4.38,2.53c-.19.11-.18.29,0,.41l5.07,2.92a.75.75,0,0,0,.7,0l4.39-2.53a.226.226,0,0,0,0-.41l-5.07-2.93a.78.78,0,0,0-.71-.03ZM225,325.15l-4.38,2.53c-.19.11-.18.29,0,.41l5.07,2.93a.78.78,0,0,0,.7,0l4.39-2.53a.226.226,0,0,0,0-.41l-5.07-2.92A.75.75,0,0,0,225,325.15Zm-6.41,3.7-4.38,2.54c-.19.1-.18.28,0,.4l5.07,2.93a.78.78,0,0,0,.7,0l4.39-2.53a.218.218,0,0,0,0-.4l-5.07-2.93a.79.79,0,0,0-.76-.01Zm-6.41,3.7-4.38,2.54c-.19.1-.18.28,0,.4l5.07,2.93a.78.78,0,0,0,.7,0l4.39-2.53a.218.218,0,0,0,0-.4l-5.07-2.93a.79.79,0,0,0-.76-.01Zm32.77,4.51,4.39-2.53a.226.226,0,0,0,0-.41l-5.07-2.93a.78.78,0,0,0-.7,0l-4.39,2.53a.226.226,0,0,0,0,.41L244.2,337a.75.75,0,0,0,.7.06Zm56.3-55.93-4.39,2.53a.226.226,0,0,0,0,.41l5.07,2.92a.75.75,0,0,0,.7,0l4.38-2.53c.19-.11.18-.29,0-.41l-5.07-2.92a.76.76,0,0,0-.74,0Zm-7.76,4.48-4.39,2.53a.226.226,0,0,0,0,.41l5.07,2.93a.78.78,0,0,0,.7,0l4.38-2.53c.19-.11.18-.29,0-.41l-5.07-2.92a.76.76,0,0,0-.74-.01Zm14.17-8.18L303.22,280a.226.226,0,0,0,0,.41l5.07,2.92a.75.75,0,0,0,.7,0l4.38-2.53c.19-.11.18-.29,0-.41l-5.07-2.93a.78.78,0,0,0-.69-.03Zm-33.18,34.21,4.38-2.53a.214.214,0,0,0,0-.4l-5.07-2.93a.75.75,0,0,0-.7,0l-4.39,2.53a.218.218,0,0,0,0,.4l5.07,2.93a.75.75,0,0,0,.66,0Zm40.29-37.9a.78.78,0,0,0-.7,0l-4.39,2.53a.226.226,0,0,0,0,.41l5.07,2.92a.75.75,0,0,0,.7,0l4.38-2.53c.19-.11.18-.29,0-.41Zm-63.41,59.62,4.39-2.53a.226.226,0,0,0,0-.41l-5.07-2.93a.78.78,0,0,0-.7,0L245.51,330a.226.226,0,0,0,0,.41l5.07,2.92a.75.75,0,0,0,.73.03ZM329.92,288l4.38-2.53a.214.214,0,0,0,0-.4l-5.07-2.93a.75.75,0,0,0-.7,0l-4.39,2.53a.218.218,0,0,0,0,.4l5.07,2.93A.78.78,0,0,0,329.92,288Zm-13.66-.48,4.39-2.53c.19-.11.17-.29,0-.4l-5.07-2.93a.79.79,0,0,0-.7,0l-4.38,2.53c-.19.11-.18.29,0,.41l5.07,2.93a.78.78,0,0,0,.69-.04Zm5.7-9.56a.75.75,0,0,0-.7,0l-4.38,2.53c-.19.11-.18.29,0,.41l5.07,2.93a.78.78,0,0,0,.7,0l4.39-2.53c.19-.11.17-.29,0-.41Zm1.35-.78,12.32,7.11a.78.78,0,0,0,.7,0l4.38-2.53a.214.214,0,0,0,0-.4l-12.32-7.11a.75.75,0,0,0-.7,0l-4.38,2.53c-.21.07-.2.22,0,.37Zm-14.87,8.16-4.38,2.54c-.19.1-.18.28,0,.4l5.07,2.93a.78.78,0,0,0,.7,0l4.39-2.53c.19-.11.17-.29,0-.4l-5.07-2.93a.79.79,0,0,0-.71-.04ZM260.2,313.17l-4.39,2.53a.218.218,0,0,0,0,.4l5.07,2.93a.79.79,0,0,0,.7,0l4.38-2.54c.19-.1.18-.28,0-.4l-5.07-2.93a.78.78,0,0,0-.69.01Zm62.61-21.51a.75.75,0,0,0,.7,0l4.38-2.53a.214.214,0,0,0,0-.4l-5.07-2.93a.75.75,0,0,0-.7,0l-4.39,2.53a.218.218,0,0,0,0,.4Zm-56.2,17.81L262.22,312a.218.218,0,0,0,0,.4l5.07,2.93a.79.79,0,0,0,.7,0l4.38-2.54c.19-.1.18-.29,0-.4l-5.07-2.93a.78.78,0,0,0-.69.01Zm-48.05,42.38a.78.78,0,0,0,.7,0l4.39-2.53a.218.218,0,0,0,0-.4l-5.1-2.92a.79.79,0,0,0-.7,0l-4.39,2.54c-.18.1-.17.28,0,.4Zm-9.64-9.07-4.39,2.53c-.19.1-.17.29,0,.4l5.07,2.93a.78.78,0,0,0,.7,0l4.38-2.53a.214.214,0,0,0,0-.4l-5.07-2.93a.75.75,0,0,0-.69,0Zm16.75,5.38,4.38-2.53a.214.214,0,0,0,0-.4L225,342.3a.79.79,0,0,0-.7,0l-4.39,2.54c-.18.1-.17.28,0,.4l5.07,2.93a.78.78,0,0,0,.69-.01Zm6.41-3.7,4.39-2.53a.226.226,0,0,0,0-.41l-5.07-2.92a.75.75,0,0,0-.7,0l-4.39,2.53a.226.226,0,0,0,0,.41l5.07,2.93a.78.78,0,0,0,.7-.01Zm6.41-3.7,4.39-2.53a.226.226,0,0,0,0-.41l-5.07-2.92a.75.75,0,0,0-.7,0l-4.39,2.53a.226.226,0,0,0,0,.41l5.07,2.93a.78.78,0,0,0,.7-.01Zm-23.16-1.69-4.39,2.54c-.19.1-.17.28,0,.4l5.07,2.93a.78.78,0,0,0,.7,0l4.38-2.53a.214.214,0,0,0,0-.4L216,339.09a.79.79,0,0,0-.67-.02Zm6.41-3.7-4.39,2.54c-.18.1-.17.28,0,.4l5.07,2.93a.78.78,0,0,0,.7,0l4.38-2.53a.214.214,0,0,0,0-.4l-5.07-2.93a.79.79,0,0,0-.69-.01Zm25.64-14.8L243,323.1a.226.226,0,0,0,0,.41l5.07,2.92a.75.75,0,0,0,.7,0l4.38-2.53c.19-.11.18-.29,0-.41l-5.07-2.93a.78.78,0,0,0-.7.01Zm-6.41,3.7-4.39,2.53a.226.226,0,0,0,0,.41l5.07,2.92a.75.75,0,0,0,.7,0l4.38-2.53c.19-.11.18-.29,0-.41l-5.07-2.93a.78.78,0,0,0-.66.01Zm12.82-7.4-4.39,2.53a.218.218,0,0,0,0,.4l5.07,2.93a.79.79,0,0,0,.7,0l4.38-2.54c.19-.1.18-.28,0-.4l-5.07-2.93a.78.78,0,0,0-.69.01Zm-25.64,14.8-4.39,2.53a.226.226,0,0,0,0,.41l5.07,2.93a.78.78,0,0,0,.7,0l4.38-2.53c.19-.11.18-.29,0-.41l-5.07-2.92a.76.76,0,0,0-.69-.01Zm6.41-3.7-4.39,2.53a.226.226,0,0,0,0,.41l5.07,2.93a.78.78,0,0,0,.7,0l4.38-2.53c.19-.11.18-.29,0-.41l-5.06-2.9a.76.76,0,0,0-.7,0Zm-4.68,26.13,4.38-2.53c.19-.11.18-.29,0-.41l-5.07-2.93a.78.78,0,0,0-.7,0l-4.39,2.53a.226.226,0,0,0,0,.41l5.07,2.92a.75.75,0,0,0,.71.01Zm-37.62-3.8-5.07-2.93a.78.78,0,0,0-.7,0l-4.39,2.53a.218.218,0,0,0,0,.4l5.07,2.93a.79.79,0,0,0,.7,0l4.39-2.54C192.47,350.6,192.46,350.42,192.26,350.3Zm9.61,2.82-5.07-2.93a.78.78,0,0,0-.7,0l-6.75,3.89c-.19.11-.18.29,0,.41l5.08,2.92a.75.75,0,0,0,.7,0l6.74-3.9C202.08,353.42,202.07,353.23,201.87,353.12Zm-17.39-8.48-5.07-2.93a.78.78,0,0,0-.7,0l-5.4,3.11a.226.226,0,0,0,0,.41l5.07,2.93a.78.78,0,0,0,.7,0l5.4-3.12c.21-.1.2-.29,0-.4Zm4.14-2.39a.75.75,0,0,0,.7,0l4.38-2.53a.214.214,0,0,0,0-.4l-5.07-2.93a.75.75,0,0,0-.7,0l-4.39,2.53a.218.218,0,0,0,0,.4Zm22.18,14.08-5.07-2.93a.75.75,0,0,0-.7,0l-8.44,4.87c-.18.1-.17.28,0,.4l5.07,2.93a.78.78,0,0,0,.7,0l8.43-4.87c.21-.11.21-.29.01-.4Zm4.21,5.93-5.07-2.92a.76.76,0,0,0-.7,0l-5.4,3.12a.214.214,0,0,0,0,.4l5.08,2.93a.75.75,0,0,0,.7,0l5.39-3.11c.21-.12.2-.3-.01-.42Zm21.27-47.53a.75.75,0,0,0,.7,0l4.38-2.53c.19-.11.18-.29,0-.41l-5.07-2.93a.78.78,0,0,0-.7,0l-4.39,2.53a.226.226,0,0,0,0,.41Zm-12.82,7.41a.78.78,0,0,0,.7,0l4.38-2.53c.19-.11.18-.29,0-.41l-5.07-2.92a.76.76,0,0,0-.7,0l-4.39,2.53a.226.226,0,0,0,0,.41ZM195,338.55a.78.78,0,0,0,.7,0l4.38-2.53a.214.214,0,0,0,0-.4L195,332.7a.79.79,0,0,0-.7,0l-4.39,2.54a.218.218,0,0,0,0,.4Zm34.84-20.12a.75.75,0,0,0,.7,0l4.38-2.53c.19-.11.18-.29,0-.41l-5.07-2.93a.78.78,0,0,0-.7,0l-4.39,2.53a.226.226,0,0,0,0,.41Zm-12.82,7.41a.78.78,0,0,0,.7,0l4.38-2.53c.19-.11.18-.29,0-.41L217,320a.76.76,0,0,0-.7,0l-4.3,2.5a.226.226,0,0,0,0,.41Zm1.48,36.9a.75.75,0,0,0-.7,0l-6.75,3.89a.226.226,0,0,0,0,.41l5.07,2.92a.75.75,0,0,0,.7,0l6.75-3.9a.218.218,0,0,0,0-.4Zm-10.68-31.59a.78.78,0,0,0,.7,0l4.38-2.53a.214.214,0,0,0,0-.4l-5.07-2.93a.79.79,0,0,0-.7,0l-4.39,2.54c-.18.1-.17.28,0,.4Zm-6.41,3.7a.78.78,0,0,0,.7,0l4.38-2.53a.214.214,0,0,0,0-.4L201.43,329a.79.79,0,0,0-.7,0l-4.39,2.54c-.18.1-.17.28,0,.4Zm135.85-40.67a.76.76,0,0,0-.7,0l-10.8,6.23a.226.226,0,0,0,0,.41l5.07,2.93a.78.78,0,0,0,.7,0l10.79-6.23c.19-.11.18-.29,0-.41Zm-14.17,8.18a.76.76,0,0,0-.7,0L318,304.87a.226.226,0,0,0,0,.41l5.07,2.93a.78.78,0,0,0,.7,0l4.38-2.53c.19-.11.18-.29,0-.41Zm-86.83,48,4.38-2.54c.19-.1.18-.28,0-.4l-5.07-2.93a.78.78,0,0,0-.7,0l-4.39,2.53a.218.218,0,0,0,0,.4l5.07,2.93a.79.79,0,0,0,.74.05Zm74-40.64a.79.79,0,0,0-.7,0l-4.39,2.54c-.18.1-.17.28,0,.4l5.07,2.93a.78.78,0,0,0,.7,0l4.38-2.53a.214.214,0,0,0,0-.4Zm33.4-19.28a.76.76,0,0,0-.7,0L338.61,293a.226.226,0,0,0,0,.41l5.07,2.92a.75.75,0,0,0,.7,0l4.38-2.53c.19-.11.18-.29,0-.41Zm11.48-.78-12.32-7.11a.78.78,0,0,0-.7,0l-4.38,2.53a.214.214,0,0,0,0,.4l12.32,7.11a.75.75,0,0,0,.7,0l4.38-2.53c.25-.06.24-.24.04-.36ZM286.3,323.55a.79.79,0,0,0-.7,0l-5.39,3.12a.214.214,0,0,0,0,.4l5.07,2.93a.79.79,0,0,0,.7,0l5.4-3.12a.214.214,0,0,0,0-.4Zm16.2-9.35a.79.79,0,0,0-.7,0l-6.75,3.9c-.19.11-.17.29,0,.4l5.07,2.93a.79.79,0,0,0,.7,0l6.74-3.9a.214.214,0,0,0,0-.4Zm-31,17.92a.79.79,0,0,0-.7,0L234.7,353c-.19.1-.17.28,0,.4l5.07,2.93a.78.78,0,0,0,.7,0l36.1-20.84a.218.218,0,0,0,0-.4Zm-38.12,22a.79.79,0,0,0-.7,0l-5.4,3.12c-.19.11-.18.29,0,.41l5.07,2.92a.76.76,0,0,0,.7,0l5.4-3.12a.214.214,0,0,0,0-.4Zm45.54-26.3a.78.78,0,0,0-.7,0l-5.4,3.12c-.18.1-.17.28,0,.4l5.07,2.93a.78.78,0,0,0,.7,0l5.4-3.11a.226.226,0,0,0,0-.41Zm-53,30.58a.78.78,0,0,0-.7,0l-5.39,3.12c-.19.1-.18.29,0,.4l5.07,2.93a.78.78,0,0,0,.7,0l5.4-3.11c.19-.11.18-.29,0-.41Zm67.82-39.15a.78.78,0,0,0-.7,0l-5.4,3.12c-.19.1-.18.28,0,.4l5.08,2.93a.76.76,0,0,0,.69,0l5.4-3.11c.19-.11.18-.29,0-.41Zm22.94-13.24a.79.79,0,0,0-.7,0l-4.39,2.54c-.18.1-.17.28,0,.4l5.07,2.93a.78.78,0,0,0,.7,0l4.38-2.53a.214.214,0,0,0,0-.4Zm14-10.2,4.39-2.54c.19-.1.17-.28,0-.4L330,290a.78.78,0,0,0-.7,0l-4.3,2.51a.214.214,0,0,0,0,.4l5.07,2.93a.79.79,0,0,0,.68.02Zm-28.66-.19,4.39-2.53c.19-.11.17-.29,0-.4l-5.07-2.93a.79.79,0,0,0-.7,0l-4.38,2.54c-.19.1-.18.28,0,.4l5.07,2.93a.78.78,0,0,0,.76.04ZM287.5,320.74l12.82-7.4c.19-.11.17-.29,0-.41l-5.07-2.92a.75.75,0,0,0-.7,0l-12.82,7.4a.226.226,0,0,0,0,.41l5.07,2.93a.78.78,0,0,0,.77.04Zm36.07-21.25a.76.76,0,0,0,.7,0l4.39-2.53c.19-.11.17-.29,0-.41l-5.07-2.93a.78.78,0,0,0-.7,0l-4.38,2.53c-.19.11-.18.29,0,.41Zm-6.54-4.16,4.38-2.54c.19-.1.18-.29,0-.4l-5.07-2.93a.78.78,0,0,0-.7,0L311.3,292a.218.218,0,0,0,0,.4l5.07,2.93a.79.79,0,0,0,.73.05Zm-35.94,29.11,4.38-2.53c.19-.11.18-.29,0-.41l-5.07-2.92a.75.75,0,0,0-.7,0l-4.39,2.53a.226.226,0,0,0,0,.41l5.07,2.93a.78.78,0,0,0,.78.04Zm28.31-16.77a.76.76,0,0,0,.7,0l4.39-2.53c.19-.11.17-.29,0-.41l-5.07-2.92a.75.75,0,0,0-.7,0l-4.38,2.53c-.19.11-.18.29,0,.41ZM249.11,343l4.38-2.54c.19-.1.18-.29,0-.4l-5.07-2.93a.78.78,0,0,0-.7,0l-4.39,2.53a.218.218,0,0,0,0,.4l5.07,2.93A.79.79,0,0,0,249.11,343Zm6.41-3.71,4.38-2.53a.214.214,0,0,0,0-.4l-5.07-2.93a.75.75,0,0,0-.7,0L249.72,336a.218.218,0,0,0,0,.4l5.07,2.93a.75.75,0,0,0,.73-.04ZM242.7,346.7l4.38-2.54c.19-.1.18-.28,0-.4L242,340.83a.78.78,0,0,0-.7,0l-4.39,2.53a.218.218,0,0,0,0,.4l5.07,2.93a.79.79,0,0,0,.72.01Zm25.64-14.81,4.38-2.53a.214.214,0,0,0,0-.4L267.63,326a.79.79,0,0,0-.7,0l-4.39,2.54c-.18.1-.17.28,0,.4l5.07,2.93a.78.78,0,0,0,.73.02Zm-6.41,3.7,4.38-2.53a.214.214,0,0,0,0-.4l-5.07-2.93a.79.79,0,0,0-.7,0l-4.39,2.54a.218.218,0,0,0,0,.4l5.07,2.93a.78.78,0,0,0,.71-.01Zm12.82-7.4,4.38-2.53a.214.214,0,0,0,0-.4L274,322.33a.76.76,0,0,0-.7,0l-4.3,2.52c-.18.1-.17.28,0,.4l5.07,2.93a.78.78,0,0,0,.68.01Zm29.33-54.75a.76.76,0,0,0,.69,0l4.39-2.54c.19-.1.18-.28,0-.4l-1.35-.78a.78.78,0,0,0-.7,0l-4.39,2.53c-.19.11-.17.29,0,.4ZM272.54,293.8a.75.75,0,0,0,.7,0l4.38-2.53c.19-.1.18-.29,0-.4L272.53,288a.75.75,0,0,0-.7,0l-4.39,2.53a.214.214,0,0,0,0,.4Zm12.82-7.4a.78.78,0,0,0,.7,0l4.38-2.53a.214.214,0,0,0,0-.4l-5.07-2.93a.79.79,0,0,0-.7,0l-4.39,2.54c-.19.1-.18.29,0,.4Zm-20.65,11.92a.78.78,0,0,0,.7,0l4.38-2.53a.214.214,0,0,0,0-.4l-5.07-2.93a.75.75,0,0,0-.7,0L259.61,295a.218.218,0,0,0,0,.4ZM279,290.1a.75.75,0,0,0,.7,0l4.38-2.53a.214.214,0,0,0,0-.4L279,284.24a.73.73,0,0,0-.69,0l-4.39,2.53a.214.214,0,0,0,0,.4Zm-27.06,15.62a.79.79,0,0,0,.7,0L257,303.2c.19-.1.18-.29,0-.4l-5.07-2.93a.78.78,0,0,0-.7,0l-4.39,2.53a.218.218,0,0,0,0,.4Zm6.41-3.7a.75.75,0,0,0,.7,0l4.38-2.53a.214.214,0,0,0,0-.4l-5.07-2.93a.75.75,0,0,0-.7,0l-4.39,2.53a.218.218,0,0,0,0,.4Zm32.95-21.18a.76.76,0,0,0,.7,0l4.39-2.53c.19-.11.18-.29,0-.41l-1.35-.78a.78.78,0,0,0-.7,0l-4.39,2.53a.214.214,0,0,0,0,.4Zm19.24-11.1a.79.79,0,0,0,.7,0l4.38-2.54c.19-.1.18-.28,0-.4l-1.42-.8a.75.75,0,0,0-.7,0l-4.39,2.53c-.19.11-.17.29,0,.4Zm10.65,6.15a.79.79,0,0,0,.7,0l4.38-2.54c.19-.1.18-.28,0-.4L321.13,270a.78.78,0,0,0-.7,0L316,272.56a.218.218,0,0,0,0,.4Zm16,16.27,4.39-2.54c.19-.1.18-.28,0-.4l-5.07-2.93a.78.78,0,0,0-.7,0l-4.38,2.53a.214.214,0,0,0,0,.4l5.07,2.93a.79.79,0,0,0,.66.01Zm-39.49-15a.74.74,0,0,0,.69,0l4.39-2.53c.19-.11.18-.29,0-.41l-1.35-.78a.78.78,0,0,0-.7,0L296.29,276a.214.214,0,0,0,0,.4Zm-52.19,32.28a.79.79,0,0,0,.7,0l4.38-2.54c.19-.1.18-.28,0-.4l-5.07-2.93a.78.78,0,0,0-.7,0l-4.39,2.53a.218.218,0,0,0,0,.4Z" fill="#79aa5f"/>
          <path id="Path_8832" data-name="Path 8832" d="M295.68,299.37l4.39-2.53c.19-.11.17-.29,0-.4L295,293.51a.79.79,0,0,0-.7,0L289.89,296c-.19.1-.18.29,0,.4l5.07,2.93a.78.78,0,0,0,.72.04ZM287,289.31l-4.39,2.53a.226.226,0,0,0,0,.41l5.07,2.93a.78.78,0,0,0,.7,0l4.38-2.53c.19-.11.18-.29,0-.41l-5.07-2.92A.76.76,0,0,0,287,289.31Zm-14.17,8.18-7.42,4.29a.214.214,0,0,0,0,.4l5.07,2.93a.75.75,0,0,0,.7,0l7.42-4.28a.214.214,0,0,0,0-.4l-5.07-2.93a.79.79,0,0,0-.67-.01Zm7.76-4.48-4.39,2.54c-.18.1-.17.28,0,.4l5.07,2.93a.78.78,0,0,0,.7,0l4.38-2.53a.214.214,0,0,0,0-.4L281.32,293a.79.79,0,0,0-.7,0ZM263.41,303,259,305.48a.214.214,0,0,0,0,.4l5.07,2.93a.79.79,0,0,0,.7,0l4.39-2.54a.218.218,0,0,0,0-.4L264.11,303A.78.78,0,0,0,263.41,303ZM257,306.7l-4.38,2.53a.214.214,0,0,0,0,.4l5.07,2.93a.79.79,0,0,0,.7,0L262.8,310c.18-.1.17-.28,0-.4l-5.07-2.93a.78.78,0,0,0-.73-.02Zm20,11.85,4.39-2.53a.218.218,0,0,0,0-.4l-5.07-2.93a.75.75,0,0,0-.7,0l-4.39,2.53a.218.218,0,0,0,0,.4l5.07,2.93a.75.75,0,0,0,.7,0Zm-6.41,3.71,4.39-2.54a.218.218,0,0,0,0-.4l-5.07-2.93a.78.78,0,0,0-.7,0l-4.39,2.53a.218.218,0,0,0,0,.4l5.07,2.93a.79.79,0,0,0,.65.01Zm-6.41,3.7,4.39-2.54c.18-.1.17-.28,0-.4l-5.07-2.93a.78.78,0,0,0-.7,0l-4.39,2.53a.218.218,0,0,0,0,.4l5.07,2.93a.79.79,0,0,0,.65.05Zm-6.41,3.7,4.39-2.53a.226.226,0,0,0,0-.41L257,323.79a.78.78,0,0,0-.7,0l-4.39,2.53a.226.226,0,0,0,0,.41l5.07,2.92a.75.75,0,0,0,.74.01Zm31.55-26.59,4.39-2.53c.19-.11.17-.29,0-.4l-5.07-2.93a.75.75,0,0,0-.7,0l-4.38,2.53a.214.214,0,0,0,0,.4l5.07,2.93a.75.75,0,0,0,.64,0Zm-5.91,11.78,9.78-5.65c.19-.1.18-.28,0-.4l-12.32-7.11a.75.75,0,0,0-.7,0L275,304.6a.218.218,0,0,0,0,.4l6.52,3.77c.2.11.21.29,0,.4l-4.05,2.34a.218.218,0,0,0,0,.4l5.07,2.93a.78.78,0,0,0,.82.01Zm-32.77-4.5-4.38,2.53a.214.214,0,0,0,0,.4l5.07,2.93a.79.79,0,0,0,.7,0l4.39-2.53a.226.226,0,0,0,0-.41l-5.07-2.93a.78.78,0,0,0-.76.01Zm-6.41,3.7-4.38,2.53c-.19.11-.18.29,0,.41l5.07,2.92a.76.76,0,0,0,.7,0L250,317.4a.226.226,0,0,0,0-.41l-5.07-2.93a.78.78,0,0,0-.75-.01Zm-32,41.5a.78.78,0,0,0,.7,0l4.38-2.53a.214.214,0,0,0,0-.4l-5.07-2.93a.75.75,0,0,0-.7,0l-4.39,2.53a.218.218,0,0,0,0,.4ZM192.9,343.66l-4.39,2.53a.218.218,0,0,0,0,.4l5.07,2.93a.79.79,0,0,0,.7,0L198.7,347a.218.218,0,0,0,0-.4l-5.07-2.93a.78.78,0,0,0-.73-.01Zm10.32,8.68a.75.75,0,0,0,.7,0l4.38-2.53a.214.214,0,0,0,0-.4l-5.07-2.93a.75.75,0,0,0-.7,0L198.12,349c-.19.11-.17.29,0,.4Zm20.25,5.46,4.38-2.53c.19-.11.18-.29,0-.41l-5.07-2.93a.78.78,0,0,0-.7,0l-4.39,2.53a.226.226,0,0,0,0,.41l5.07,2.92a.75.75,0,0,0,.71.01Zm-7.11,3.69a.78.78,0,0,0,.7,0l4.38-2.53c.19-.11.18-.29,0-.41l-5.07-2.92a.76.76,0,0,0-.7,0l-4.39,2.53a.226.226,0,0,0,0,.41ZM199.31,340l-4.39,2.53a.218.218,0,0,0,0,.4l5.07,2.93a.75.75,0,0,0,.7,0l4.39-2.53a.218.218,0,0,0,0-.4L200,340A.75.75,0,0,0,199.31,340Zm32.05-18.51L227,324c-.19.11-.18.29,0,.41l5.07,2.93a.78.78,0,0,0,.7,0l4.39-2.53a.226.226,0,0,0,0-.41l-5.07-2.92a.75.75,0,0,0-.73-.03ZM205.72,336.3l-4.39,2.53a.218.218,0,0,0,0,.4l5.07,2.93a.78.78,0,0,0,.7,0l4.39-2.53a.218.218,0,0,0,0-.4l-5.07-2.93a.75.75,0,0,0-.7-.04Zm32.05-18.51-4.38,2.53c-.19.11-.18.29,0,.41l5.07,2.92a.75.75,0,0,0,.7,0l4.39-2.53a.226.226,0,0,0,0-.41l-5.07-2.93a.78.78,0,0,0-.71-.03ZM225,325.15l-4.38,2.53c-.19.11-.18.29,0,.41l5.07,2.93a.78.78,0,0,0,.7,0l4.39-2.53a.226.226,0,0,0,0-.41l-5.07-2.92A.75.75,0,0,0,225,325.15Zm-6.41,3.7-4.38,2.54c-.19.1-.18.28,0,.4l5.07,2.93a.78.78,0,0,0,.7,0l4.39-2.53a.218.218,0,0,0,0-.4l-5.07-2.93a.79.79,0,0,0-.76-.01Zm-6.41,3.7-4.38,2.54c-.19.1-.18.28,0,.4l5.07,2.93a.78.78,0,0,0,.7,0l4.39-2.53a.218.218,0,0,0,0-.4l-5.07-2.93a.79.79,0,0,0-.76-.01Zm32.77,4.51,4.39-2.53a.226.226,0,0,0,0-.41l-5.07-2.93a.78.78,0,0,0-.7,0l-4.39,2.53a.226.226,0,0,0,0,.41L244.2,337a.75.75,0,0,0,.7.06Zm56.3-55.93-4.39,2.53a.226.226,0,0,0,0,.41l5.07,2.92a.75.75,0,0,0,.7,0l4.38-2.53c.19-.11.18-.29,0-.41l-5.07-2.92a.76.76,0,0,0-.74,0Zm-7.76,4.48-4.39,2.53a.226.226,0,0,0,0,.41l5.07,2.93a.78.78,0,0,0,.7,0l4.38-2.53c.19-.11.18-.29,0-.41l-5.07-2.92a.76.76,0,0,0-.74-.01Zm14.17-8.18L303.22,280a.226.226,0,0,0,0,.41l5.07,2.92a.75.75,0,0,0,.7,0l4.38-2.53c.19-.11.18-.29,0-.41l-5.07-2.93a.78.78,0,0,0-.69-.03Zm-33.18,34.21,4.38-2.53a.214.214,0,0,0,0-.4l-5.07-2.93a.75.75,0,0,0-.7,0l-4.39,2.53a.218.218,0,0,0,0,.4l5.07,2.93a.75.75,0,0,0,.66,0Zm40.29-37.9a.78.78,0,0,0-.7,0l-4.39,2.53a.226.226,0,0,0,0,.41l5.07,2.92a.75.75,0,0,0,.7,0l4.38-2.53c.19-.11.18-.29,0-.41Zm-63.41,59.62,4.39-2.53a.226.226,0,0,0,0-.41l-5.07-2.93a.78.78,0,0,0-.7,0L245.51,330a.226.226,0,0,0,0,.41l5.07,2.92a.75.75,0,0,0,.73.03ZM329.92,288l4.38-2.53a.214.214,0,0,0,0-.4l-5.07-2.93a.75.75,0,0,0-.7,0l-4.39,2.53a.218.218,0,0,0,0,.4l5.07,2.93A.78.78,0,0,0,329.92,288Zm-13.66-.48,4.39-2.53c.19-.11.17-.29,0-.4l-5.07-2.93a.79.79,0,0,0-.7,0l-4.38,2.53c-.19.11-.18.29,0,.41l5.07,2.93a.78.78,0,0,0,.69-.04Zm5.7-9.56a.75.75,0,0,0-.7,0l-4.38,2.53c-.19.11-.18.29,0,.41l5.07,2.93a.78.78,0,0,0,.7,0l4.39-2.53c.19-.11.17-.29,0-.41Zm1.35-.78,12.32,7.11a.78.78,0,0,0,.7,0l4.38-2.53a.214.214,0,0,0,0-.4l-12.32-7.11a.75.75,0,0,0-.7,0l-4.38,2.53c-.21.07-.2.22,0,.37Zm-14.87,8.16-4.38,2.54c-.19.1-.18.28,0,.4l5.07,2.93a.78.78,0,0,0,.7,0l4.39-2.53c.19-.11.17-.29,0-.4l-5.07-2.93a.79.79,0,0,0-.71-.04ZM260.2,313.17l-4.39,2.53a.218.218,0,0,0,0,.4l5.07,2.93a.79.79,0,0,0,.7,0l4.38-2.54c.19-.1.18-.28,0-.4l-5.07-2.93a.78.78,0,0,0-.69.01Zm62.61-21.51a.75.75,0,0,0,.7,0l4.38-2.53a.214.214,0,0,0,0-.4l-5.07-2.93a.75.75,0,0,0-.7,0l-4.39,2.53a.218.218,0,0,0,0,.4Zm-56.2,17.81L262.22,312a.218.218,0,0,0,0,.4l5.07,2.93a.79.79,0,0,0,.7,0l4.38-2.54c.19-.1.18-.29,0-.4l-5.07-2.93a.78.78,0,0,0-.69.01Zm-48.05,42.38a.78.78,0,0,0,.7,0l4.39-2.53a.218.218,0,0,0,0-.4l-5.1-2.92a.79.79,0,0,0-.7,0l-4.39,2.54c-.18.1-.17.28,0,.4Zm-9.64-9.07-4.39,2.53c-.19.1-.17.29,0,.4l5.07,2.93a.78.78,0,0,0,.7,0l4.38-2.53a.214.214,0,0,0,0-.4l-5.07-2.93a.75.75,0,0,0-.69,0Zm16.75,5.38,4.38-2.53a.214.214,0,0,0,0-.4L225,342.3a.79.79,0,0,0-.7,0l-4.39,2.54c-.18.1-.17.28,0,.4l5.07,2.93a.78.78,0,0,0,.69-.01Zm6.41-3.7,4.39-2.53a.226.226,0,0,0,0-.41l-5.07-2.92a.75.75,0,0,0-.7,0l-4.39,2.53a.226.226,0,0,0,0,.41l5.07,2.93a.78.78,0,0,0,.7-.01Zm6.41-3.7,4.39-2.53a.226.226,0,0,0,0-.41l-5.07-2.92a.75.75,0,0,0-.7,0l-4.39,2.53a.226.226,0,0,0,0,.41l5.07,2.93a.78.78,0,0,0,.7-.01Zm-23.16-1.69-4.39,2.54c-.19.1-.17.28,0,.4l5.07,2.93a.78.78,0,0,0,.7,0l4.38-2.53a.214.214,0,0,0,0-.4L216,339.09a.79.79,0,0,0-.67-.02Zm6.41-3.7-4.39,2.54c-.18.1-.17.28,0,.4l5.07,2.93a.78.78,0,0,0,.7,0l4.38-2.53a.214.214,0,0,0,0-.4l-5.07-2.93a.79.79,0,0,0-.69-.01Zm25.64-14.8L243,323.1a.226.226,0,0,0,0,.41l5.07,2.92a.75.75,0,0,0,.7,0l4.38-2.53c.19-.11.18-.29,0-.41l-5.07-2.93a.78.78,0,0,0-.7.01Zm-6.41,3.7-4.39,2.53a.226.226,0,0,0,0,.41l5.07,2.92a.75.75,0,0,0,.7,0l4.38-2.53c.19-.11.18-.29,0-.41l-5.07-2.93a.78.78,0,0,0-.66.01Zm12.82-7.4-4.39,2.53a.218.218,0,0,0,0,.4l5.07,2.93a.79.79,0,0,0,.7,0l4.38-2.54c.19-.1.18-.28,0-.4l-5.07-2.93a.78.78,0,0,0-.69.01Zm-25.64,14.8-4.39,2.53a.226.226,0,0,0,0,.41l5.07,2.93a.78.78,0,0,0,.7,0l4.38-2.53c.19-.11.18-.29,0-.41l-5.07-2.92a.76.76,0,0,0-.69-.01Zm6.41-3.7-4.39,2.53a.226.226,0,0,0,0,.41l5.07,2.93a.78.78,0,0,0,.7,0l4.38-2.53c.19-.11.18-.29,0-.41l-5.06-2.9a.76.76,0,0,0-.7,0Zm-4.68,26.13,4.38-2.53c.19-.11.18-.29,0-.41l-5.07-2.93a.78.78,0,0,0-.7,0l-4.39,2.53a.226.226,0,0,0,0,.41l5.07,2.92a.75.75,0,0,0,.71.01Zm-37.62-3.8-5.07-2.93a.78.78,0,0,0-.7,0l-4.39,2.53a.218.218,0,0,0,0,.4l5.07,2.93a.79.79,0,0,0,.7,0l4.39-2.54C192.47,350.6,192.46,350.42,192.26,350.3Zm9.61,2.82-5.07-2.93a.78.78,0,0,0-.7,0l-6.75,3.89c-.19.11-.18.29,0,.41l5.08,2.92a.75.75,0,0,0,.7,0l6.74-3.9C202.08,353.42,202.07,353.23,201.87,353.12Zm-17.39-8.48-5.07-2.93a.78.78,0,0,0-.7,0l-5.4,3.11a.226.226,0,0,0,0,.41l5.07,2.93a.78.78,0,0,0,.7,0l5.4-3.12c.21-.1.2-.29,0-.4Zm4.14-2.39a.75.75,0,0,0,.7,0l4.38-2.53a.214.214,0,0,0,0-.4l-5.07-2.93a.75.75,0,0,0-.7,0l-4.39,2.53a.218.218,0,0,0,0,.4Zm22.18,14.08-5.07-2.93a.75.75,0,0,0-.7,0l-8.44,4.87c-.18.1-.17.28,0,.4l5.07,2.93a.78.78,0,0,0,.7,0l8.43-4.87c.21-.11.21-.29.01-.4Zm4.21,5.93-5.07-2.92a.76.76,0,0,0-.7,0l-5.4,3.12a.214.214,0,0,0,0,.4l5.08,2.93a.75.75,0,0,0,.7,0l5.39-3.11c.21-.12.2-.3-.01-.42Zm21.27-47.53a.75.75,0,0,0,.7,0l4.38-2.53c.19-.11.18-.29,0-.41l-5.07-2.93a.78.78,0,0,0-.7,0l-4.39,2.53a.226.226,0,0,0,0,.41Zm-12.82,7.41a.78.78,0,0,0,.7,0l4.38-2.53c.19-.11.18-.29,0-.41l-5.07-2.92a.76.76,0,0,0-.7,0l-4.39,2.53a.226.226,0,0,0,0,.41ZM195,338.55a.78.78,0,0,0,.7,0l4.38-2.53a.214.214,0,0,0,0-.4L195,332.7a.79.79,0,0,0-.7,0l-4.39,2.54a.218.218,0,0,0,0,.4Zm34.84-20.12a.75.75,0,0,0,.7,0l4.38-2.53c.19-.11.18-.29,0-.41l-5.07-2.93a.78.78,0,0,0-.7,0l-4.39,2.53a.226.226,0,0,0,0,.41Zm-12.82,7.41a.78.78,0,0,0,.7,0l4.38-2.53c.19-.11.18-.29,0-.41L217,320a.76.76,0,0,0-.7,0l-4.3,2.5a.226.226,0,0,0,0,.41Zm1.48,36.9a.75.75,0,0,0-.7,0l-6.75,3.89a.226.226,0,0,0,0,.41l5.07,2.92a.75.75,0,0,0,.7,0l6.75-3.9a.218.218,0,0,0,0-.4Zm-10.68-31.59a.78.78,0,0,0,.7,0l4.38-2.53a.214.214,0,0,0,0-.4l-5.07-2.93a.79.79,0,0,0-.7,0l-4.39,2.54c-.18.1-.17.28,0,.4Zm-6.41,3.7a.78.78,0,0,0,.7,0l4.38-2.53a.214.214,0,0,0,0-.4L201.43,329a.79.79,0,0,0-.7,0l-4.39,2.54c-.18.1-.17.28,0,.4Zm135.85-40.67a.76.76,0,0,0-.7,0l-10.8,6.23a.226.226,0,0,0,0,.41l5.07,2.93a.78.78,0,0,0,.7,0l10.79-6.23c.19-.11.18-.29,0-.41Zm-14.17,8.18a.76.76,0,0,0-.7,0L318,304.87a.226.226,0,0,0,0,.41l5.07,2.93a.78.78,0,0,0,.7,0l4.38-2.53c.19-.11.18-.29,0-.41Zm-86.83,48,4.38-2.54c.19-.1.18-.28,0-.4l-5.07-2.93a.78.78,0,0,0-.7,0l-4.39,2.53a.218.218,0,0,0,0,.4l5.07,2.93a.79.79,0,0,0,.74.05Zm74-40.64a.79.79,0,0,0-.7,0l-4.39,2.54c-.18.1-.17.28,0,.4l5.07,2.93a.78.78,0,0,0,.7,0l4.38-2.53a.214.214,0,0,0,0-.4Zm33.4-19.28a.76.76,0,0,0-.7,0L338.61,293a.226.226,0,0,0,0,.41l5.07,2.92a.75.75,0,0,0,.7,0l4.38-2.53c.19-.11.18-.29,0-.41Zm11.48-.78-12.32-7.11a.78.78,0,0,0-.7,0l-4.38,2.53a.214.214,0,0,0,0,.4l12.32,7.11a.75.75,0,0,0,.7,0l4.38-2.53c.25-.06.24-.24.04-.36ZM286.3,323.55a.79.79,0,0,0-.7,0l-5.39,3.12a.214.214,0,0,0,0,.4l5.07,2.93a.79.79,0,0,0,.7,0l5.4-3.12a.214.214,0,0,0,0-.4Zm16.2-9.35a.79.79,0,0,0-.7,0l-6.75,3.9c-.19.11-.17.29,0,.4l5.07,2.93a.79.79,0,0,0,.7,0l6.74-3.9a.214.214,0,0,0,0-.4Zm-31,17.92a.79.79,0,0,0-.7,0L234.7,353c-.19.1-.17.28,0,.4l5.07,2.93a.78.78,0,0,0,.7,0l36.1-20.84a.218.218,0,0,0,0-.4Zm-38.12,22a.79.79,0,0,0-.7,0l-5.4,3.12c-.19.11-.18.29,0,.41l5.07,2.92a.76.76,0,0,0,.7,0l5.4-3.12a.214.214,0,0,0,0-.4Zm45.54-26.3a.78.78,0,0,0-.7,0l-5.4,3.12c-.18.1-.17.28,0,.4l5.07,2.93a.78.78,0,0,0,.7,0l5.4-3.11a.226.226,0,0,0,0-.41Zm-53,30.58a.78.78,0,0,0-.7,0l-5.39,3.12c-.19.1-.18.29,0,.4l5.07,2.93a.78.78,0,0,0,.7,0l5.4-3.11c.19-.11.18-.29,0-.41Zm67.82-39.15a.78.78,0,0,0-.7,0l-5.4,3.12c-.19.1-.18.28,0,.4l5.08,2.93a.76.76,0,0,0,.69,0l5.4-3.11c.19-.11.18-.29,0-.41Zm22.94-13.24a.79.79,0,0,0-.7,0l-4.39,2.54c-.18.1-.17.28,0,.4l5.07,2.93a.78.78,0,0,0,.7,0l4.38-2.53a.214.214,0,0,0,0-.4Zm14-10.2,4.39-2.54c.19-.1.17-.28,0-.4L330,290a.78.78,0,0,0-.7,0l-4.3,2.51a.214.214,0,0,0,0,.4l5.07,2.93a.79.79,0,0,0,.68.02Zm-28.66-.19,4.39-2.53c.19-.11.17-.29,0-.4l-5.07-2.93a.79.79,0,0,0-.7,0l-4.38,2.54c-.19.1-.18.28,0,.4l5.07,2.93a.78.78,0,0,0,.76.04ZM287.5,320.74l12.82-7.4c.19-.11.17-.29,0-.41l-5.07-2.92a.75.75,0,0,0-.7,0l-12.82,7.4a.226.226,0,0,0,0,.41l5.07,2.93a.78.78,0,0,0,.77.04Zm36.07-21.25a.76.76,0,0,0,.7,0l4.39-2.53c.19-.11.17-.29,0-.41l-5.07-2.93a.78.78,0,0,0-.7,0l-4.38,2.53c-.19.11-.18.29,0,.41Zm-6.54-4.16,4.38-2.54c.19-.1.18-.29,0-.4l-5.07-2.93a.78.78,0,0,0-.7,0L311.3,292a.218.218,0,0,0,0,.4l5.07,2.93a.79.79,0,0,0,.73.05Zm-35.94,29.11,4.38-2.53c.19-.11.18-.29,0-.41l-5.07-2.92a.75.75,0,0,0-.7,0l-4.39,2.53a.226.226,0,0,0,0,.41l5.07,2.93a.78.78,0,0,0,.78.04Zm28.31-16.77a.76.76,0,0,0,.7,0l4.39-2.53c.19-.11.17-.29,0-.41l-5.07-2.92a.75.75,0,0,0-.7,0l-4.38,2.53c-.19.11-.18.29,0,.41ZM249.11,343l4.38-2.54c.19-.1.18-.29,0-.4l-5.07-2.93a.78.78,0,0,0-.7,0l-4.39,2.53a.218.218,0,0,0,0,.4l5.07,2.93A.79.79,0,0,0,249.11,343Zm6.41-3.71,4.38-2.53a.214.214,0,0,0,0-.4l-5.07-2.93a.75.75,0,0,0-.7,0L249.72,336a.218.218,0,0,0,0,.4l5.07,2.93a.75.75,0,0,0,.73-.04ZM242.7,346.7l4.38-2.54c.19-.1.18-.28,0-.4L242,340.83a.78.78,0,0,0-.7,0l-4.39,2.53a.218.218,0,0,0,0,.4l5.07,2.93a.79.79,0,0,0,.72.01Zm25.64-14.81,4.38-2.53a.214.214,0,0,0,0-.4L267.63,326a.79.79,0,0,0-.7,0l-4.39,2.54c-.18.1-.17.28,0,.4l5.07,2.93a.78.78,0,0,0,.73.02Zm-6.41,3.7,4.38-2.53a.214.214,0,0,0,0-.4l-5.07-2.93a.79.79,0,0,0-.7,0l-4.39,2.54a.218.218,0,0,0,0,.4l5.07,2.93a.78.78,0,0,0,.71-.01Zm12.82-7.4,4.38-2.53a.214.214,0,0,0,0-.4L274,322.33a.76.76,0,0,0-.7,0l-4.3,2.52c-.18.1-.17.28,0,.4l5.07,2.93a.78.78,0,0,0,.68.01Zm29.33-54.75a.76.76,0,0,0,.69,0l4.39-2.54c.19-.1.18-.28,0-.4l-1.35-.78a.78.78,0,0,0-.7,0l-4.39,2.53c-.19.11-.17.29,0,.4ZM272.54,293.8a.75.75,0,0,0,.7,0l4.38-2.53c.19-.1.18-.29,0-.4L272.53,288a.75.75,0,0,0-.7,0l-4.39,2.53a.214.214,0,0,0,0,.4Zm12.82-7.4a.78.78,0,0,0,.7,0l4.38-2.53a.214.214,0,0,0,0-.4l-5.07-2.93a.79.79,0,0,0-.7,0l-4.39,2.54c-.19.1-.18.29,0,.4Zm-20.65,11.92a.78.78,0,0,0,.7,0l4.38-2.53a.214.214,0,0,0,0-.4l-5.07-2.93a.75.75,0,0,0-.7,0L259.61,295a.218.218,0,0,0,0,.4ZM279,290.1a.75.75,0,0,0,.7,0l4.38-2.53a.214.214,0,0,0,0-.4L279,284.24a.73.73,0,0,0-.69,0l-4.39,2.53a.214.214,0,0,0,0,.4Zm-27.06,15.62a.79.79,0,0,0,.7,0L257,303.2c.19-.1.18-.29,0-.4l-5.07-2.93a.78.78,0,0,0-.7,0l-4.39,2.53a.218.218,0,0,0,0,.4Zm6.41-3.7a.75.75,0,0,0,.7,0l4.38-2.53a.214.214,0,0,0,0-.4l-5.07-2.93a.75.75,0,0,0-.7,0l-4.39,2.53a.218.218,0,0,0,0,.4Zm32.95-21.18a.76.76,0,0,0,.7,0l4.39-2.53c.19-.11.18-.29,0-.41l-1.35-.78a.78.78,0,0,0-.7,0l-4.39,2.53a.214.214,0,0,0,0,.4Zm19.24-11.1a.79.79,0,0,0,.7,0l4.38-2.54c.19-.1.18-.28,0-.4l-1.42-.8a.75.75,0,0,0-.7,0l-4.39,2.53c-.19.11-.17.29,0,.4Zm10.65,6.15a.79.79,0,0,0,.7,0l4.38-2.54c.19-.1.18-.28,0-.4L321.13,270a.78.78,0,0,0-.7,0L316,272.56a.218.218,0,0,0,0,.4Zm16,16.27,4.39-2.54c.19-.1.18-.28,0-.4l-5.07-2.93a.78.78,0,0,0-.7,0l-4.38,2.53a.214.214,0,0,0,0,.4l5.07,2.93a.79.79,0,0,0,.66.01Zm-39.49-15a.74.74,0,0,0,.69,0l4.39-2.53c.19-.11.18-.29,0-.41l-1.35-.78a.78.78,0,0,0-.7,0L296.29,276a.214.214,0,0,0,0,.4Zm-52.19,32.28a.79.79,0,0,0,.7,0l4.38-2.54c.19-.1.18-.28,0-.4l-5.07-2.93a.78.78,0,0,0-.7,0l-4.39,2.53a.218.218,0,0,0,0,.4Z" fill="#fff" opacity="0.8"/>
          <path id="Path_8833" data-name="Path 8833" d="M273.9,347.9l43.29-25a5.23,5.23,0,0,1,4.72,0l24.82,14.33c1.3.75,1.3,2,0,2.73l-43.28,25a5.19,5.19,0,0,1-4.73,0L273.9,350.63C272.6,349.87,272.6,348.65,273.9,347.9Z" fill="#79aa5f"/>
          <path id="Path_8834" data-name="Path 8834" d="M273.9,347.9l43.29-25a5.23,5.23,0,0,1,4.72,0l24.82,14.33c1.3.75,1.3,2,0,2.73l-43.28,25a5.19,5.19,0,0,1-4.73,0L273.9,350.63C272.6,349.87,272.6,348.65,273.9,347.9Z" fill="#fff" opacity="0.4"/>
          <path id="Path_8835" data-name="Path 8835" d="M131.22,332.2a6,6,0,0,0,1.21.52,5.5,5.5,0,0,1-1.21-.51,2.4,2.4,0,0,1-.37-.25A3.364,3.364,0,0,0,131.22,332.2Z" fill="#79aa5f"/>
          <path id="Path_8836" data-name="Path 8836" d="M293.66,105.86c-.28-2-1.92-2.78-3.9-1.64L138.85,191.36a7.93,7.93,0,0,0-2.79,2.92L128.68,190a8,8,0,0,1,2.78-2.94L282.38,100a7.36,7.36,0,0,1,11.28,5.9Z" fill="#fff" opacity="0.6"/>
          <path id="Path_8837" data-name="Path 8837" d="M138.11,332.57l.06-.05h0Z" fill="#79aa5f"/>
          <path id="Path_8838" data-name="Path 8838" d="M411.87,315.15a8.45,8.45,0,0,1-3.94,6.54L257,408.82a8.13,8.13,0,0,1-3.94.92v-8.51a8,8,0,0,0,3.94-.94l150.91-87.13c2-1.18,2.16-3,.4-4.29a8.52,8.52,0,0,1,3.56,6.28Z" fill="#fff" opacity="0.8"/>
        </g>
        <g id="freepik--Window--inject-2">
          <path id="Path_8839" data-name="Path 8839" d="M144.37,303.34c0,1.86,1.31,2.61,2.92,1.68L280.78,228a6.45,6.45,0,0,0,2.92-5V133L144.37,213.47Z" fill="#37474f"/>
          <path id="Path_8840" data-name="Path 8840" d="M195.13,194.51v4.32c0,.88.63,1.24,1.39.8l27.72-16.09V176l-27.72,16.1a3.1,3.1,0,0,0-1.39,2.41Z" fill="#fafafa"/>
          <path id="Path_8841" data-name="Path 8841" d="M231.55,171.79c.77-.44,1.39-.08,1.39.8v4.32a3.06,3.06,0,0,1-1.39,2.41l-7.31,4.22V176Z" fill="#79aa5f"/>
          <path id="Path_8842" data-name="Path 8842" d="M231,177.72l-.82-.26a4.141,4.141,0,0,0,.13-1.05,1.92,1.92,0,0,0-.74-1.74,1.16,1.16,0,0,0-1.19.06,4.17,4.17,0,0,0-1.63,3.39,1.92,1.92,0,0,0,.75,1.74,1,1,0,0,0,.51.14,1.33,1.33,0,0,0,.67-.2A3.41,3.41,0,0,0,230,178l.82.25h.09a.32.32,0,0,0,.29-.22.29.29,0,0,0-.2-.31Zm-2.62,1.56a.54.54,0,0,1-.58.05,1.4,1.4,0,0,1-.44-1.21,3.67,3.67,0,0,1,1.32-2.87.85.85,0,0,1,.37-.11.54.54,0,0,1,.22.05,1.44,1.44,0,0,1,.44,1.22,3.65,3.65,0,0,1-1.32,2.87Z" fill="#fafafa"/>
          <path id="Path_8843" data-name="Path 8843" d="M144.37,207.37a6.45,6.45,0,0,1,2.92-5l133.49-77.08c1.61-.93,2.92-.17,2.92,1.68V133L144.37,213.47Z" fill="#263238"/>
          <path id="Path_8844" data-name="Path 8844" d="M267.31,136.18a3,3,0,0,0-1.37,2.37c0,.87.61,1.22,1.37.79a3,3,0,0,0,1.36-2.37C268.67,136.1,268.06,135.75,267.31,136.18Z" fill="#79aa5f"/>
          <path id="Path_8845" data-name="Path 8845" d="M272.09,133.43a3,3,0,0,0-1.37,2.36c0,.88.61,1.23,1.37.79a3,3,0,0,0,1.36-2.36C273.45,133.35,272.84,133,272.09,133.43Z" fill="#79aa5f"/>
          <path id="Path_8846" data-name="Path 8846" d="M276.87,130.68A3,3,0,0,0,275.5,133c0,.87.61,1.23,1.37.79a3,3,0,0,0,1.36-2.37C278.23,130.59,277.62,130.24,276.87,130.68Z" fill="#79aa5f"/>
          <path id="Path_8847" data-name="Path 8847" d="M147.29,305l133.49-77a6.45,6.45,0,0,0,2.92-5V157.85L144.37,238.28v65.06C144.37,305.2,145.68,306,147.29,305Z" fill="#fafafa"/>
          <path id="Path_8848" data-name="Path 8848" d="M198.83,193l20.36-11.75c.78-.45,1.41-.14,1.41.71a3,3,0,0,1-1.41,2.35l-20.33,11.67c-.79.45-1.43.15-1.43-.67A3,3,0,0,1,198.83,193Z" fill="#455a64" opacity="0.4"/>
          <path id="NO_DATA_FOUND" data-name="NO DATA FOUND" d="M12.133,70.962l-2.318,1.3L4.961,68.185q-.431-.36-.6-.568l-.029.016q.112.515.222,1.636L5.1,74.894,2.907,76.121,1.874,65.832,4.4,64.44l4.7,4.012q.318.266.593.549l.029-.016q-.09-.325-.188-1.375l-.532-5.7L11.2,60.7Zm6.608-3.51q-2.166,1.212-3.659.556t-1.706-2.956q-.218-2.437,1.053-4.722t3.581-3.558q2.174-1.2,3.629-.486t1.635,3.058q.191,2.4-1.064,4.638T18.741,67.451Zm-.626-8.643q-1.2.665-1.836,1.973t-.5,2.81q.132,1.52.915,2.009t1.922-.148q1.173-.654,1.79-1.893t.492-2.764q-.13-1.593-.873-2.111T18.115,58.808ZM29.249,61.39l-.755-10.207,3.53-1.943q5.27-2.9,5.6,2.085.155,2.373-1.173,4.578t-3.7,3.532Zm1.627-9.558L31.34,58.3l1.1-.614q1.442-.8,2.2-2.151t.654-2.887q-.1-1.458-.971-1.845t-2.353.428Zm16.981-.848L45.5,52.3l-.817-1.859-3.445,1.92-.544,2.627L38.32,56.317l2.909-12.143,2.607-1.435ZM44.08,48.971,42.833,46.13q-.139-.321-.218-.829l-.054.03q-.007.468-.116.984L41.6,50.351Zm10.3-10.114-2.73,1.507.427,8.259-2.154,1.2-.445-8.265-2.74,1.512L46.635,41.2l7.656-4.213Zm9,3.443-2.3,1.284-.765-1.858-3.354,1.869-.56,2.605L54.1,47.492l2.972-12.037,2.538-1.4Zm-3.623-2.044L58.6,37.417q-.13-.32-.2-.826l-.053.029q-.013.465-.125.977l-.873,4ZM73.28,28.425l-3.271,1.806.085,2.48,3-1.662.058,1.837L70.158,34.55l.134,3.888L68.21,39.6l-.366-10.075,5.379-2.96ZM78.9,33.8q-1.955,1.094-3.23.391t-1.35-2.958q-.073-2.388,1.149-4.567t3.305-3.326q1.96-1.079,3.2-.326t1.285,3.053q.052,2.357-1.154,4.486T78.9,33.8Zm-.132-8.467q-1.087.6-1.7,1.85T76.5,29.9q.042,1.49.7,2t1.689-.065q1.059-.591,1.659-1.775t.564-2.679q-.038-1.561-.663-2.1T78.771,25.331Zm13.321-3.42q.031,2.242-.886,3.88t-2.79,2.686q-3.651,2.042-3.742-2.34l-.121-5.8L86.6,19.2l.11,5.828q.046,2.419,1.746,1.471,1.664-.928,1.627-3.261l-.093-5.9,2.022-1.113Zm9.892-1.2L100,21.825l-3.683-4.219q-.327-.373-.454-.584l-.025.014q.055.5.066,1.59l.057,5.457L94.08,25.134l-.122-9.979,2.163-1.19,3.561,4.147q.242.276.447.565l.024-.014q-.051-.319-.058-1.337l-.037-5.528,1.876-1.032Zm1.992-1.114-.031-9.941,3.1-1.706q4.629-2.547,4.61,2.306-.009,2.311-1.264,4.383t-3.343,3.24Zm1.944-9.191.008,6.3.967-.539q1.267-.707,1.988-1.975t.724-2.768q0-1.42-.712-1.84t-2.015.3Z" transform="translate(157.906 191.198)" fill="#79aa5f"/>
        </g>
      </g>
    </g>
  </g>
</svg>
