<svg xmlns="http://www.w3.org/2000/svg" width="7.523" height="6.953" viewBox="0 0 7.523 6.953">
  <path id="Path_1" data-name="Path 1" d="M71.753,97.523a1.627,1.627,0,0,0-.373-.232c-.129-.064-1.074-.527-1.252-.591-.152-.055-.325-.117-.479.113-.117.174-.461.575-.573.7-.079.089-.15.119-.324.031a6.276,6.276,0,0,1-1.452-.888,5.345,5.345,0,0,1-1-1.239c-.08-.135-.028-.2.071-.3.061-.059.327-.382.348-.413.043-.065.119-.22.119-.22a.394.394,0,0,0-.014-.371c-.031-.06-.516-1.228-.562-1.337-.138-.33-.286-.347-.427-.339-.069,0-.71.01-.915.231l-.036.038a2.036,2.036,0,0,0-.618,1.508,2.317,2.317,0,0,0,.1.632,4.12,4.12,0,0,0,.661,1.275c.007.009.476.661.711.931a6.428,6.428,0,0,0,2.427,1.817,5.733,5.733,0,0,0,1.8.519,3.835,3.835,0,0,0,.408-.063,1.9,1.9,0,0,0,1.28-.9A1.494,1.494,0,0,0,71.753,97.523Z" transform="translate(-64.265 -92.443)" fill="#3e4357"/>
</svg>
