<svg xmlns="http://www.w3.org/2000/svg" width="132.52" height="132.5" viewBox="0 0 132.52 132.5">
  <g id="Group_1" data-name="Group 1" transform="translate(-77.093 -349)">
    <path id="Path_1" data-name="Path 1" d="M204.127,388.733a77.159,77.159,0,0,0-4.033-7.459,59.845,59.845,0,0,1,2.089,55.073,59.02,59.02,0,0,1-6.169,10.221,60.064,60.064,0,0,1-27.9,20.515c-1.808.641-3.645,1.191-5.5,1.655q-1.39.348-2.792.625c-.233.05-.467.093-.7.135l-.7.129c-.234.045-.469.081-.7.118l-.7.112a60.887,60.887,0,0,1-11.327.631,60.218,60.218,0,0,1-21.779-4.975,59.313,59.313,0,0,1-9.735-5.393,60.07,60.07,0,0,1-15.655-15.67,59.4,59.4,0,0,1-5.385-9.737A60.374,60.374,0,0,1,88.8,401.622q.424-2.819,1.119-5.6.347-1.389.762-2.762t.892-2.731a60.108,60.108,0,0,1,20.5-27.895,59.341,59.341,0,0,1,33.611-11.859,59.808,59.808,0,0,1,31.737,7.8,77.958,77.958,0,0,0-7.527-4.078,66.749,66.749,0,0,0-36.771-4.7l-.78.127c-.261.042-.521.083-.78.135l-.779.145c-.259.048-.519.1-.777.155q-1.553.317-3.094.707-3.078.787-6.089,1.866a66.282,66.282,0,0,0-21.976,13.181,66.71,66.71,0,0,0-8.789,9.664,65.715,65.715,0,0,0-12.931,37.172,66.2,66.2,0,0,0,10.887,38.541,67.123,67.123,0,0,0,19.135,19.12,65.984,65.984,0,0,0,75.686-2.066,66.594,66.594,0,0,0,17.355-19.173q1.658-2.763,3.033-5.666t2.457-5.905q.542-1.5,1.006-3.024t.861-3.061c.262-1.026.5-2.057.709-3.093.057-.257.106-.517.155-.777l.146-.778c.051-.259.092-.519.135-.78l.127-.78a67.253,67.253,0,0,0,.757-12.559A66.545,66.545,0,0,0,204.127,388.733Z" fill="#b2d5a1"/>
    <path id="Path_2" data-name="Path 2" d="M429.647,522.907,416.14,536.414l25.284,22.326,6.813,6.016,4.4-6.769,54.036-83.222L446.72,542.242Z" transform="translate(-309.137 -114.671)" fill="#b2d5a1"/>
  </g>
</svg>
